SplineFontDB: 3.0
FontName: Mertz-Regular
FullName: Mertz Regular
FamilyName: Mertz
Weight: Book
Copyright: 2012 vernon adams
Version: 1
ItalicAngle: 0
UnderlinePosition: 0
UnderlineWidth: 0
Ascent: 1638
Descent: 410
sfntRevision: 0x00010000
LayerCount: 2
Layer: 0 1 "Back"  1
Layer: 1 1 "Fore"  0
XUID: [1021 14 500265001 6037222]
FSType: 0
OS2Version: 4
OS2_WeightWidthSlopeOnly: 0
OS2_UseTypoMetrics: 1
CreationTime: 1337980085
ModificationTime: 1338459871
PfmFamily: 17
TTFWeight: 400
TTFWidth: 5
LineGap: 0
VLineGap: 0
Panose: 2 0 5 3 0 0 0 0 0 0
OS2TypoAscent: 1863
OS2TypoAOffset: 0
OS2TypoDescent: -636
OS2TypoDOffset: 0
OS2TypoLinegap: 0
OS2WinAscent: 1863
OS2WinAOffset: 0
OS2WinDescent: 636
OS2WinDOffset: 0
HheadAscent: 1863
HheadAOffset: 0
HheadDescent: -636
HheadDOffset: 0
OS2SubXSize: 1331
OS2SubYSize: 1433
OS2SubXOff: 0
OS2SubYOff: 286
OS2SupXSize: 1331
OS2SupYSize: 1433
OS2SupXOff: 0
OS2SupYOff: 983
OS2StrikeYSize: 102
OS2StrikeYPos: 530
OS2Vendor: 'newt'
OS2CodePages: 00000093.00000000
OS2UnicodeRanges: a000006f.4000204b.00000000.00000000
Lookup: 4 0 1 "'liga' Standard Ligatures lookup 0"  {"'liga' Standard Ligatures lookup 0 subtable"  } ['liga' ('DFLT' <'dflt' > 'grek' <'dflt' > 'latn' <'dflt' > ) ]
Lookup: 260 0 0 "'mark' Mark Positioning lookup 0"  {"'mark' Mark Positioning lookup 0 subtable"  } ['mark' ('DFLT' <'dflt' > 'grek' <'dflt' > 'latn' <'dflt' > ) ]
Lookup: 258 0 0 "'kern' Horizontal Kerning in Latin lookup 1"  {"'kern' Horizontal Kerning in Latin lookup 1 per glyph data 0"  "'kern' Horizontal Kerning in Latin lookup 1 kerning class 1"  } ['kern' ('DFLT' <'dflt' > 'latn' <'dflt' > ) ]
MarkAttachClasses: 1
DEI: 91125
KernClass2: 33 31 "'kern' Horizontal Kerning in Latin lookup 1 kerning class 1" 
 89 A Agrave Aacute Acircumflex Atilde Adieresis Aring Amacron Abreve Aogonek uni0200 uni0202
 9 B uni1E02
 1 C
 119 D O Q Eth Ograve Oacute Ocircumflex Otilde Odieresis Oslash Dcaron Omacron Obreve Ohungarumlaut uni020C uni020E uni1E0A
 1 F
 1 G

StartChar: .notdef
Encoding: 65536 -1 0
Width: 748
Flags: W
LayerCount: 2
Fore
SplineSet
136 68 m 1,0,-1
 544 68 l 1,1,-1
 544 1297 l 1,2,-1
 136 1297 l 1,3,-1
 136 68 l 1,0,-1
68 0 m 1,4,-1
 68 1365 l 1,5,-1
 612 1365 l 1,6,-1
 612 0 l 1,7,-1
 68 0 l 1,4,-1
EndSplineSet
EndChar

StartChar: exclam
Encoding: 33 33 4
Width: 474
GlyphClass: 2
Flags: W
LayerCount: 2
Fore
SplineSet
316 15 m 128,-1,1
 288 -16 288 -16 239.5 -16 c 128,-1,2
 191 -16 191 -16 162.5 15 c 128,-1,3
 134 46 134 46 134 87.5 c 128,-1,4
 134 129 134 129 162.5 160.5 c 128,-1,5
 191 192 191 192 239 192 c 128,-1,6
 287 192 287 192 315.5 160.5 c 128,-1,7
 344 129 344 129 344 87.5 c 128,-1,0
 344 46 344 46 316 15 c 128,-1,1
212 344 m 1,8,-1
 155 1241 l 1,9,-1
 320 1241 l 1,10,-1
 263 344 l 1,11,-1
 212 344 l 1,8,-1
EndSplineSet
EndChar

StartChar: quotedbl
Encoding: 34 34 5
Width: 681
GlyphClass: 2
Flags: W
LayerCount: 2
Fore
SplineSet
433 780 m 1,0,-1
 378 1302 l 1,1,-1
 541 1302 l 1,2,-1
 485 780 l 1,3,-1
 433 780 l 1,0,-1
197 780 m 1,4,-1
 142 1302 l 1,5,-1
 305 1302 l 1,6,-1
 250 780 l 1,7,-1
 197 780 l 1,4,-1
EndSplineSet
EndChar

StartChar: numbersign
Encoding: 35 35 6
Width: 1151
GlyphClass: 2
Flags: W
LayerCount: 2
Fore
SplineSet
733 724 m 1,0,-1
 467 724 l 1,1,-1
 408 513 l 1,2,-1
 674 513 l 1,3,-1
 733 724 l 1,0,-1
156 724 m 1,4,-1
 156 824 l 1,5,-1
 364 824 l 1,6,-1
 480 1241 l 1,7,-1
 611 1241 l 1,8,-1
 495 824 l 1,9,-1
 760 824 l 1,10,-1
 876 1241 l 1,11,-1
 1007 1241 l 1,12,-1
 891 824 l 1,13,-1
 1046 824 l 1,14,-1
 1046 724 l 1,15,-1
 863 724 l 1,16,-1
 804 513 l 1,17,-1
 996 513 l 1,18,-1
 996 414 l 1,19,-1
 776 414 l 1,20,-1
 661 0 l 1,21,-1
 532 0 l 1,22,-1
 647 414 l 1,23,-1
 380 414 l 1,24,-1
 265 0 l 1,25,-1
 136 0 l 1,26,-1
 251 414 l 1,27,-1
 106 414 l 1,28,-1
 106 513 l 1,29,-1
 278 513 l 1,30,-1
 337 724 l 1,31,-1
 156 724 l 1,4,-1
EndSplineSet
EndChar

StartChar: dollar
Encoding: 36 36 7
Width: 969
GlyphClass: 2
Flags: W
LayerCount: 2
Fore
SplineSet
538 1140 m 1,0,1
 506 1142 506 1142 492 1142 c 0,2,3
 369 1142 369 1142 308 1092 c 128,-1,4
 247 1042 247 1042 247 966 c 0,5,6
 247 864 247 864 384 778 c 1,7,-1
 464 729 l 1,8,-1
 538 1140 l 1,0,1
436 101 m 1,9,10
 467 98 467 98 498 98 c 0,11,12
 607 98 607 98 664.5 148.5 c 128,-1,13
 722 199 722 199 722 283 c 0,14,15
 722 405 722 405 565 500 c 1,16,-1
 513 532 l 1,17,-1
 436 101 l 1,9,10
412 -28 m 1,18,-1
 383 -193 l 1,19,-1
 300 -193 l 1,20,-1
 332 -15 l 1,21,22
 214 12 214 12 119 69 c 1,23,-1
 119 207 l 1,24,25
 213 145 213 145 355 114 c 1,26,-1
 438 579 l 1,27,-1
 289 671 l 1,28,29
 89 793 89 793 89 960 c 0,30,31
 89 1095 89 1095 192.5 1185 c 128,-1,32
 296 1275 296 1275 479 1275 c 0,33,34
 526 1275 526 1275 561 1271 c 1,35,-1
 584 1399 l 1,36,-1
 668 1399 l 1,37,-1
 643 1258 l 1,38,39
 742 1238 742 1238 818 1201 c 1,40,-1
 818 1061 l 1,41,42
 743 1101 743 1101 619 1127 c 1,43,-1
 540 683 l 1,44,-1
 643 620 l 2,45,46
 774 539 774 539 827.5 461 c 128,-1,47
 881 383 881 383 881 296 c 128,-1,48
 881 209 881 209 850 145.5 c 0,49,50
 818 82 818 82 766 44 c 0,51,52
 660 -34 660 -34 510 -34 c 0,53,54
 457 -34 457 -34 412 -28 c 1,18,-1
EndSplineSet
EndChar

StartChar: percent
Encoding: 37 37 8
Width: 1432
GlyphClass: 2
Flags: W
LayerCount: 2
Fore
SplineSet
477.5 748.5 m 128,-1,1
 416 718 416 718 342.5 718 c 128,-1,2
 269 718 269 718 208 748.5 c 128,-1,3
 147 779 147 779 108.5 839 c 128,-1,4
 70 899 70 899 70 978.5 c 128,-1,5
 70 1058 70 1058 108 1119 c 0,6,7
 185 1241 185 1241 344 1241 c 0,8,9
 496 1240 496 1240 576 1118 c 0,10,11
 616 1056 616 1056 616 977.5 c 128,-1,12
 616 899 616 899 577.5 839 c 128,-1,0
 539 779 539 779 477.5 748.5 c 128,-1,1
208 846 m 128,-1,14
 256 793 256 793 342.5 793 c 128,-1,15
 429 793 429 793 478 847.5 c 128,-1,16
 527 902 527 902 527 978 c 128,-1,17
 527 1054 527 1054 477.5 1110 c 128,-1,18
 428 1166 428 1166 343 1166 c 128,-1,19
 258 1166 258 1166 209 1110 c 128,-1,20
 160 1054 160 1054 160 976.5 c 128,-1,13
 160 899 160 899 208 846 c 128,-1,14
1225.5 31.5 m 128,-1,22
 1164 1 1164 1 1090.5 1 c 128,-1,23
 1017 1 1017 1 956 31.5 c 128,-1,24
 895 62 895 62 856.5 122 c 128,-1,25
 818 182 818 182 818 261.5 c 128,-1,26
 818 341 818 341 856 402 c 0,27,28
 933 524 933 524 1092 524 c 0,29,30
 1244 524 1244 524 1324 402 c 0,31,32
 1364 340 1364 340 1364 261 c 128,-1,33
 1364 182 1364 182 1325.5 122 c 128,-1,21
 1287 62 1287 62 1225.5 31.5 c 128,-1,22
956 129 m 128,-1,35
 1004 76 1004 76 1090.5 76 c 128,-1,36
 1177 76 1177 76 1226 130.5 c 128,-1,37
 1275 185 1275 185 1275 261 c 128,-1,38
 1275 337 1275 337 1225.5 393 c 128,-1,39
 1176 449 1176 449 1091 449 c 128,-1,40
 1006 449 1006 449 957 393 c 128,-1,41
 908 337 908 337 908 259.5 c 128,-1,34
 908 182 908 182 956 129 c 128,-1,35
296 0 m 1,42,-1
 1014 1241 l 1,43,-1
 1134 1241 l 1,44,-1
 414 0 l 1,45,-1
 296 0 l 1,42,-1
EndSplineSet
EndChar

StartChar: ampersand
Encoding: 38 38 9
Width: 1322
GlyphClass: 2
Flags: W
LayerCount: 2
Fore
SplineSet
487 765 m 1,0,1
 599 815 599 815 654.5 882.5 c 128,-1,2
 710 950 710 950 710 1016.5 c 128,-1,3
 710 1083 710 1083 663.5 1124 c 128,-1,4
 617 1165 617 1165 532.5 1165 c 128,-1,5
 448 1165 448 1165 389.5 1131.5 c 128,-1,6
 331 1098 331 1098 331 1014 c 128,-1,7
 331 930 331 930 440 814 c 1,8,-1
 487 765 l 1,0,1
460 616 m 1,9,10
 358 556 358 556 315 486.5 c 128,-1,11
 272 417 272 417 272 328 c 0,12,13
 272 244 272 244 338 176 c 0,14,15
 412 99 412 99 561 98.5 c 128,-1,16
 710 98 710 98 858 200 c 1,17,-1
 460 616 l 1,9,10
128 315 m 0,18,19
 128 559 128 559 374 706 c 1,20,-1
 358 723 l 1,21,22
 196 890 196 890 196 1022 c 0,23,24
 196 1086 196 1086 226 1136.5 c 128,-1,25
 256 1187 256 1187 304 1216 c 0,26,27
 399 1274 399 1274 508 1274 c 0,28,29
 671 1274 671 1274 754.5 1204.5 c 128,-1,30
 838 1135 838 1135 840 1029 c 1,31,-1
 840 1023 l 2,32,33
 840 925 840 925 773.5 833.5 c 128,-1,34
 707 742 707 742 574 674 c 1,35,-1
 954 279 l 1,36,37
 1046 369 1046 369 1100 479 c 1,38,-1
 1206 414 l 1,39,40
 1158 296 1158 296 1045 186 c 1,41,-1
 1176 49 l 1,42,-1
 1082 -34 l 1,43,-1
 949 105 l 1,44,45
 760 -34 760 -34 556 -34 c 0,46,47
 455 -34 455 -34 372 -3 c 128,-1,48
 289 28 289 28 237 78 c 0,49,50
 128 184 128 184 128 315 c 0,18,19
EndSplineSet
EndChar

StartChar: quotesingle
Encoding: 39 39 10
Width: 421
GlyphClass: 2
Flags: W
LayerCount: 2
Fore
SplineSet
187 750 m 1,0,-1
 143 1241 l 1,1,-1
 279 1241 l 1,2,-1
 235 750 l 1,3,-1
 187 750 l 1,0,-1
EndSplineSet
EndChar

StartChar: parenleft
Encoding: 40 40 11
Width: 485
GlyphClass: 2
Flags: W
LayerCount: 2
Fore
SplineSet
240 -44 m 1,0,1
 99 256 99 256 99 650 c 0,2,3
 99 1044 99 1044 240 1345 c 1,4,-1
 402 1345 l 1,5,6
 266 1036 266 1036 266 649 c 0,7,8
 266 262 266 262 403 -44 c 1,9,-1
 240 -44 l 1,0,1
EndSplineSet
EndChar

StartChar: parenright
Encoding: 41 41 12
Width: 485
GlyphClass: 2
Flags: W
LayerCount: 2
Fore
SplineSet
86 -44 m 1,0,1
 222 263 222 263 222 650 c 128,-1,2
 222 1037 222 1037 85 1345 c 1,3,-1
 247 1345 l 1,4,5
 388 1044 388 1044 388 648 c 0,6,7
 388 252 388 252 248 -44 c 1,8,-1
 86 -44 l 1,0,1
EndSplineSet
EndChar

StartChar: asterisk
Encoding: 42 42 13
Width: 1048
GlyphClass: 2
Flags: W
LayerCount: 2
Fore
SplineSet
310 478 m 1,0,-1
 217 562 l 1,1,-1
 455 824 l 1,2,-1
 132 939 l 1,3,-1
 178 1052 l 1,4,-1
 483 902 l 1,5,-1
 453 1248 l 1,6,-1
 592 1248 l 1,7,-1
 563 902 l 1,8,-1
 869 1052 l 1,9,-1
 915 939 l 1,10,-1
 591 824 l 1,11,-1
 830 562 l 1,12,-1
 737 478 l 1,13,-1
 523 773 l 1,14,-1
 310 478 l 1,0,-1
EndSplineSet
EndChar

StartChar: plus
Encoding: 43 43 14
Width: 868
GlyphClass: 2
Flags: W
LayerCount: 2
Fore
SplineSet
376 312 m 1,0,-1
 376 539 l 1,1,-1
 148 539 l 1,2,-1
 148 653 l 1,3,-1
 376 653 l 1,4,-1
 376 882 l 1,5,-1
 490 882 l 1,6,-1
 490 653 l 1,7,-1
 719 653 l 1,8,-1
 719 539 l 1,9,-1
 490 539 l 1,10,-1
 490 312 l 1,11,-1
 376 312 l 1,0,-1
EndSplineSet
EndChar

StartChar: comma
Encoding: 44 44 15
Width: 493
GlyphClass: 2
Flags: W
LayerCount: 2
Fore
SplineSet
128 -163 m 1,0,1
 132 -157 132 -157 144.5 -141.5 c 128,-1,2
 157 -126 157 -126 162 -119.5 c 128,-1,3
 167 -113 167 -113 176.5 -99 c 128,-1,4
 186 -85 186 -85 191.5 -76.5 c 0,5,6
 198 -68 198 -68 204 -56 c 0,7,8
 215 -37 215 -37 221 -11 c 1,9,10
 188 -1 188 -1 168.5 27 c 128,-1,11
 149 55 149 55 149 92 c 128,-1,12
 149 129 149 129 178 160.5 c 128,-1,13
 207 192 207 192 255 192 c 128,-1,14
 303 192 303 192 331.5 160.5 c 128,-1,15
 360 129 360 129 360 88 c 0,16,17
 360 -22 360 -22 193 -163 c 1,18,-1
 128 -163 l 1,0,1
EndSplineSet
EndChar

StartChar: hyphen
Encoding: 45 45 16
AltUni2: 002014.ffffffff.0 002013.ffffffff.0
Width: 877
GlyphClass: 2
Flags: W
LayerCount: 2
Fore
SplineSet
153 535 m 1,0,-1
 153 660 l 1,1,-1
 723 660 l 1,2,-1
 723 535 l 1,3,-1
 153 535 l 1,0,-1
EndSplineSet
EndChar

StartChar: period
Encoding: 46 46 17
Width: 506
GlyphClass: 2
Flags: W
LayerCount: 2
Fore
SplineSet
330 15 m 128,-1,1
 302 -16 302 -16 253.5 -16 c 128,-1,2
 205 -16 205 -16 176.5 15 c 128,-1,3
 148 46 148 46 148 87.5 c 128,-1,4
 148 129 148 129 176.5 160.5 c 128,-1,5
 205 192 205 192 253 192 c 128,-1,6
 301 192 301 192 329.5 160.5 c 128,-1,7
 358 129 358 129 358 87.5 c 128,-1,0
 358 46 358 46 330 15 c 128,-1,1
EndSplineSet
EndChar

StartChar: slash
Encoding: 47 47 18
Width: 832
GlyphClass: 2
Flags: W
LayerCount: 2
Fore
SplineSet
62 0 m 1,0,-1
 618 1241 l 1,1,-1
 767 1241 l 1,2,-1
 210 0 l 1,3,-1
 62 0 l 1,0,-1
EndSplineSet
EndChar

StartChar: zero
Encoding: 48 48 19
Width: 1239
GlyphClass: 2
Flags: W
LayerCount: 2
Fore
SplineSet
620 105 m 0,0,1
 707 105 707 105 772.5 132 c 128,-1,2
 838 159 838 159 886 219 c 0,3,4
 984 341 984 341 984.5 617.5 c 128,-1,5
 985 894 985 894 891.5 1015 c 128,-1,6
 798 1136 798 1136 620 1136 c 128,-1,7
 442 1136 442 1136 348 1015 c 128,-1,8
 254 894 254 894 254 621 c 0,9,10
 254 220 254 220 468 132 c 0,11,12
 534 105 534 105 620 105 c 0,0,1
620 -34 m 128,-1,14
 365 -34 365 -34 227.5 131.5 c 128,-1,15
 90 297 90 297 90 620 c 0,16,17
 90 1274 90 1274 619.5 1274 c 128,-1,18
 1149 1274 1149 1274 1149 620 c 0,19,20
 1149 297 1149 297 1012 131.5 c 128,-1,13
 875 -34 875 -34 620 -34 c 128,-1,14
EndSplineSet
EndChar

StartChar: one
Encoding: 49 49 20
Width: 622
GlyphClass: 2
Flags: W
LayerCount: 2
Fore
SplineSet
301 0 m 1,0,-1
 301 1013 l 1,1,2
 191 945 191 945 52 903 c 1,3,-1
 52 1041 l 1,4,5
 201 1100 201 1100 402 1224 c 1,6,-1
 466 1265 l 1,7,-1
 466 0 l 1,8,-1
 301 0 l 1,0,-1
EndSplineSet
EndChar

StartChar: two
Encoding: 50 50 21
Width: 953
GlyphClass: 2
Flags: W
LayerCount: 2
Fore
SplineSet
75 0 m 1,0,-1
 527 605 l 2,1,2
 602 705 602 705 637.5 774.5 c 128,-1,3
 673 844 673 844 673 936 c 0,4,5
 673 1028 673 1028 613.5 1082 c 128,-1,6
 554 1136 554 1136 471 1136 c 0,7,8
 388 1136 388 1136 306 1100 c 128,-1,9
 224 1064 224 1064 185 1030 c 1,10,-1
 126 1155 l 1,11,12
 171 1195 171 1195 273 1234.5 c 128,-1,13
 375 1274 375 1274 475 1274 c 0,14,15
 635 1274 635 1274 735 1175 c 128,-1,16
 835 1076 835 1076 835 915 c 0,17,18
 835 812 835 812 788 720.5 c 128,-1,19
 741 629 741 629 641 499 c 2,20,-1
 361 136 l 1,21,-1
 842 136 l 1,22,-1
 842 0 l 1,23,-1
 75 0 l 1,0,-1
EndSplineSet
EndChar

StartChar: three
Encoding: 51 51 22
Width: 923
GlyphClass: 2
Flags: W
LayerCount: 2
Fore
SplineSet
580 1093.5 m 128,-1,1
 515 1143 515 1143 398 1143 c 128,-1,2
 281 1143 281 1143 159 1067 c 1,3,-1
 112 1187 l 1,4,5
 173 1227 173 1227 263 1250.5 c 128,-1,6
 353 1274 353 1274 444 1274 c 128,-1,7
 535 1274 535 1274 614.5 1240 c 128,-1,8
 694 1206 694 1206 745.5 1132 c 128,-1,9
 797 1058 797 1058 797 953 c 128,-1,10
 797 848 797 848 724.5 772.5 c 128,-1,11
 652 697 652 697 546 662 c 1,12,13
 668 618 668 618 746.5 526 c 128,-1,14
 825 434 825 434 825 294 c 128,-1,15
 825 154 825 154 719.5 60 c 128,-1,16
 614 -34 614 -34 429 -34 c 0,17,18
 347 -34 347 -34 257.5 -9 c 128,-1,19
 168 16 168 16 115 48 c 1,20,-1
 151 171 l 1,21,22
 289 100 289 100 409.5 100 c 128,-1,23
 530 100 530 100 598.5 158 c 128,-1,24
 667 216 667 216 667 320.5 c 128,-1,25
 667 425 667 425 581.5 500.5 c 128,-1,26
 496 576 496 576 297 627 c 1,27,-1
 297 682 l 1,28,29
 645 768 645 768 645 949 c 0,30,0
 645 1044 645 1044 580 1093.5 c 128,-1,1
EndSplineSet
EndChar

StartChar: four
Encoding: 52 52 23
Width: 1102
GlyphClass: 2
Flags: W
LayerCount: 2
Fore
SplineSet
660 0 m 1,0,-1
 660 252 l 1,1,-1
 63 252 l 1,2,-1
 825 1273 l 1,3,-1
 825 381 l 1,4,-1
 1015 381 l 1,5,-1
 1015 252 l 1,6,-1
 825 252 l 1,7,-1
 825 0 l 1,8,-1
 660 0 l 1,0,-1
319 381 m 1,9,-1
 660 381 l 1,10,-1
 660 862 l 1,11,-1
 319 381 l 1,9,-1
EndSplineSet
EndChar

StartChar: five
Encoding: 53 53 24
Width: 984
GlyphClass: 2
Flags: W
LayerCount: 2
Fore
SplineSet
475 -34 m 0,0,1
 373 -34 373 -34 275 0 c 128,-1,2
 177 34 177 34 128 81 c 1,3,-1
 166 211 l 1,4,5
 215 171 215 171 297 138 c 0,6,7
 378 105 378 105 486 105 c 128,-1,8
 594 105 594 105 666 174.5 c 128,-1,9
 738 244 738 244 738 354 c 128,-1,10
 738 464 738 464 668.5 541.5 c 128,-1,11
 599 619 599 619 482 619 c 128,-1,12
 365 619 365 619 305 547 c 1,13,-1
 183 573 l 1,14,-1
 210 1241 l 1,15,-1
 803 1241 l 1,16,-1
 789 1098 l 1,17,-1
 342 1098 l 1,18,19
 340 1056 340 1056 332.5 912.5 c 128,-1,20
 325 769 325 769 323 703 c 1,21,22
 398 749 398 749 515 749 c 0,23,24
 671 749 671 749 783 641.5 c 128,-1,25
 895 534 895 534 895 355 c 128,-1,26
 895 176 895 176 783.5 71 c 128,-1,27
 672 -34 672 -34 475 -34 c 0,0,1
EndSplineSet
EndChar

StartChar: six
Encoding: 54 54 25
Width: 1112
GlyphClass: 2
Flags: W
LayerCount: 2
Fore
SplineSet
454 698 m 1,0,1
 518 741 518 741 618.5 741 c 128,-1,2
 719 741 719 741 805.5 696 c 128,-1,3
 892 651 892 651 947 563 c 128,-1,4
 1002 475 1002 475 1002 363 c 0,5,6
 1002 191 1002 191 884 78.5 c 128,-1,7
 766 -34 766 -34 587.5 -34 c 128,-1,8
 409 -34 409 -34 298.5 81.5 c 128,-1,9
 188 197 188 197 188 372 c 0,10,11
 188 491 188 491 225.5 587 c 0,12,13
 263 684 263 684 325 774 c 0,14,15
 419 911 419 911 612 1158 c 2,16,-1
 677 1241 l 1,17,-1
 862 1241 l 1,18,-1
 454 698 l 1,0,1
776.5 546 m 128,-1,20
 706 616 706 616 587.5 616 c 128,-1,21
 469 616 469 616 405 542.5 c 128,-1,22
 341 469 341 469 341 357.5 c 128,-1,23
 341 246 341 246 405 173 c 128,-1,24
 469 100 469 100 585 100 c 128,-1,25
 701 100 701 100 774 176.5 c 128,-1,26
 847 253 847 253 847 364.5 c 128,-1,19
 847 476 847 476 776.5 546 c 128,-1,20
EndSplineSet
EndChar

StartChar: seven
Encoding: 55 55 26
Width: 991
GlyphClass: 2
Flags: W
LayerCount: 2
Fore
SplineSet
276 0 m 1,0,-1
 660 1102 l 1,1,-1
 176 1102 l 1,2,-1
 176 1241 l 1,3,-1
 839 1241 l 1,4,-1
 839 1117 l 1,5,-1
 444 0 l 1,6,-1
 276 0 l 1,0,-1
EndSplineSet
EndChar

StartChar: eight
Encoding: 56 56 27
Width: 1155
GlyphClass: 2
Flags: W
LayerCount: 2
Fore
SplineSet
590 -34 m 0,0,1
 372 -34 372 -34 260 111 c 0,2,3
 202 186 202 186 202.5 289.5 c 128,-1,4
 203 393 203 393 270 490.5 c 128,-1,5
 337 588 337 588 453 654 c 1,6,7
 349 710 349 710 287.5 792 c 128,-1,8
 226 874 226 874 226 964 c 0,9,10
 226 1092 226 1092 324 1183 c 128,-1,11
 422 1274 422 1274 588 1274 c 128,-1,12
 754 1274 754 1274 854 1186 c 128,-1,13
 954 1098 954 1098 954 968 c 0,14,15
 954 761 954 761 708 660 c 1,16,17
 979 539 979 539 979 303 c 0,18,19
 979 145 979 145 868.5 55.5 c 128,-1,20
 758 -34 758 -34 590 -34 c 0,0,1
563 712 m 1,21,22
 698 764 698 764 754.5 823.5 c 128,-1,23
 811 883 811 883 811 964.5 c 128,-1,24
 811 1046 811 1046 745 1098.5 c 128,-1,25
 679 1151 679 1151 585 1151 c 128,-1,26
 491 1151 491 1151 430 1099.5 c 128,-1,27
 369 1048 369 1048 369 965 c 128,-1,28
 369 882 369 882 418.5 815 c 128,-1,29
 468 748 468 748 563 712 c 1,21,22
422.5 148 m 128,-1,31
 488 92 488 92 588.5 92 c 128,-1,32
 689 92 689 92 761 149 c 128,-1,33
 833 206 833 206 833 304.5 c 128,-1,34
 833 403 833 403 766 480 c 128,-1,35
 699 557 699 557 580 600 c 1,36,37
 472 560 472 560 414.5 482 c 128,-1,38
 357 404 357 404 357 304 c 128,-1,30
 357 204 357 204 422.5 148 c 128,-1,31
EndSplineSet
EndChar

StartChar: nine
Encoding: 57 57 28
Width: 1112
GlyphClass: 2
Flags: W
LayerCount: 2
Fore
SplineSet
706 543 m 1,0,1
 642 500 642 500 541.5 500 c 128,-1,2
 441 500 441 500 354.5 545 c 128,-1,3
 268 590 268 590 213 678 c 128,-1,4
 158 766 158 766 158 878 c 0,5,6
 158 1050 158 1050 276 1162 c 128,-1,7
 394 1274 394 1274 572.5 1274 c 128,-1,8
 751 1274 751 1274 861.5 1158.5 c 128,-1,9
 972 1043 972 1043 972 869 c 0,10,11
 972 750 972 750 934.5 654 c 128,-1,12
 897 558 897 558 835 468 c 0,13,14
 753 349 753 349 548 82 c 1,15,-1
 483 0 l 1,16,-1
 298 0 l 1,17,-1
 706 543 l 1,0,1
383.5 695 m 128,-1,19
 454 625 454 625 572.5 625 c 128,-1,20
 691 625 691 625 755 698.5 c 128,-1,21
 819 772 819 772 819 883.5 c 128,-1,22
 819 995 819 995 755 1068 c 128,-1,23
 691 1141 691 1141 575 1141 c 128,-1,24
 459 1141 459 1141 386 1064.5 c 128,-1,25
 313 988 313 988 313 876.5 c 128,-1,18
 313 765 313 765 383.5 695 c 128,-1,19
EndSplineSet
EndChar

StartChar: less
Encoding: 60 60 31
Width: 1001
GlyphClass: 2
Flags: W
LayerCount: 2
Fore
SplineSet
925 -25 m 1,0,-1
 59 397 l 1,1,-1
 925 829 l 1,2,-1
 925 662 l 1,3,-1
 350 396 l 1,4,-1
 925 140 l 1,5,-1
 925 -25 l 1,0,-1
EndSplineSet
EndChar

StartChar: equal
Encoding: 61 61 32
Width: 951
GlyphClass: 2
Flags: W
LayerCount: 2
Fore
SplineSet
153 385 m 1,0,-1
 153 494 l 1,1,-1
 797 494 l 1,2,-1
 797 385 l 1,3,-1
 153 385 l 1,0,-1
153 647 m 1,4,-1
 153 756 l 1,5,-1
 797 756 l 1,6,-1
 797 647 l 1,7,-1
 153 647 l 1,4,-1
EndSplineSet
EndChar

StartChar: greater
Encoding: 62 62 33
Width: 1000
GlyphClass: 2
Flags: W
LayerCount: 2
Fore
SplineSet
78 -25 m 1,0,-1
 78 142 l 1,1,-1
 653 408 l 1,2,-1
 78 664 l 1,3,-1
 78 829 l 1,4,-1
 944 407 l 1,5,-1
 78 -25 l 1,0,-1
EndSplineSet
EndChar

StartChar: question
Encoding: 63 63 34
Width: 889
GlyphClass: 2
Flags: W
LayerCount: 2
Fore
SplineSet
350 15 m 128,-1,1
 322 -16 322 -16 273.5 -16 c 128,-1,2
 225 -16 225 -16 196.5 15 c 128,-1,3
 168 46 168 46 168 87.5 c 128,-1,4
 168 129 168 129 196.5 160.5 c 128,-1,5
 225 192 225 192 273 192 c 128,-1,6
 321 192 321 192 349.5 160.5 c 128,-1,7
 378 129 378 129 378 87.5 c 128,-1,0
 378 46 378 46 350 15 c 128,-1,1
232 361 m 1,8,9
 486 645 486 645 556.5 745.5 c 128,-1,10
 627 846 627 846 627 941 c 128,-1,11
 627 1036 627 1036 566.5 1086 c 128,-1,12
 506 1136 506 1136 425 1136 c 0,13,14
 274 1136 274 1136 146 1040 c 1,15,-1
 84 1158 l 1,16,17
 131 1197 131 1197 231 1235.5 c 128,-1,18
 331 1274 331 1274 431 1274 c 0,19,20
 589 1274 589 1274 690.5 1187.5 c 128,-1,21
 792 1101 792 1101 792 947 c 0,22,23
 792 824 792 824 693 701 c 0,24,25
 612 600 612 600 495 487 c 128,-1,26
 378 374 378 374 365 361 c 1,27,-1
 232 361 l 1,8,9
EndSplineSet
EndChar

StartChar: at
Encoding: 64 64 35
Width: 1559
GlyphClass: 2
Flags: W
LayerCount: 2
Fore
SplineSet
451 482 m 1,0,-1
 450 508 l 1,1,2
 450 681 450 681 558 788 c 0,3,4
 679 907 679 907 919 907 c 0,5,6
 976 907 976 907 1037 901 c 1,7,-1
 1037 471 l 2,8,9
 1038 364 1038 364 1052 339 c 0,10,11
 1090 299 1090 299 1122 292 c 1,12,13
 1197 292 1197 292 1247 373.5 c 128,-1,14
 1297 455 1297 455 1297 588 c 128,-1,15
 1297 721 1297 721 1261.5 810.5 c 128,-1,16
 1226 900 1226 900 1164 956 c 0,17,18
 1039 1069 1039 1069 847 1069 c 0,19,20
 492 1069 492 1069 346 826 c 0,21,22
 266 694 266 694 267 522 c 0,23,24
 267 278 267 278 418 143 c 128,-1,25
 569 8 569 8 814 8 c 0,26,27
 945 8 945 8 1065.5 47.5 c 128,-1,28
 1186 87 1186 87 1273 138 c 1,29,-1
 1303 41 l 1,30,31
 1210 -14 1210 -14 1079.5 -57.5 c 128,-1,32
 949 -101 949 -101 808.5 -101 c 128,-1,33
 668 -101 668 -101 549 -59.5 c 128,-1,34
 430 -18 430 -18 339 59.5 c 128,-1,35
 248 137 248 137 194.5 256.5 c 128,-1,36
 141 376 141 376 141 497 c 128,-1,37
 141 618 141 618 164 708.5 c 128,-1,38
 187 799 187 799 240.5 886 c 128,-1,39
 294 973 294 973 372.5 1037.5 c 128,-1,40
 451 1102 451 1102 572.5 1141 c 128,-1,41
 694 1180 694 1180 840 1180 c 128,-1,42
 986 1180 986 1180 1099 1133 c 128,-1,43
 1212 1086 1212 1086 1281 1006 c 0,44,45
 1422 843 1422 843 1422 613 c 0,46,47
 1422 414 1422 414 1322 304 c 0,48,49
 1229 202 1229 202 1111 201 c 0,50,51
 957 201 957 201 922 351 c 1,52,53
 844 203 844 203 707 203 c 0,54,55
 597 203 597 203 527 286.5 c 128,-1,56
 457 370 457 370 451 482 c 1,0,-1
721 304 m 1,57,58
 777 305 777 305 824.5 339.5 c 128,-1,59
 872 374 872 374 903 423 c 1,60,-1
 903 811 l 1,61,62
 685 810 685 810 611 670 c 0,63,64
 575 602 575 602 575 510 c 0,65,66
 575 406 575 406 617 355 c 128,-1,67
 659 304 659 304 718 304 c 2,68,-1
 721 304 l 1,57,58
EndSplineSet
EndChar

StartChar: A
Encoding: 65 65 36
Width: 1284
GlyphClass: 2
Flags: W
AnchorPoint: "Anchor-1" 642 1241 basechar 0
AnchorPoint: "Anchor-0" 1139 0 basechar 0
LayerCount: 2
Fore
SplineSet
77 0 m 1,0,-1
 641 1270 l 1,1,-1
 1207 0 l 1,2,-1
 1040 0 l 1,3,-1
 904 297 l 1,4,-1
 377 297 l 1,5,-1
 246 0 l 1,6,-1
 77 0 l 1,0,-1
419 409 m 1,7,-1
 871 409 l 1,8,-1
 641 953 l 1,9,-1
 419 409 l 1,7,-1
EndSplineSet
EndChar

StartChar: B
Encoding: 66 66 37
Width: 1087
GlyphClass: 2
Flags: W
LayerCount: 2
Fore
SplineSet
156 0 m 1,0,-1
 156 1241 l 1,1,-1
 479 1241 l 2,2,3
 713 1241 713 1241 820.5 1163.5 c 128,-1,4
 928 1086 928 1086 928 934 c 0,5,6
 928 820 928 820 840 740 c 0,7,8
 792 698 792 698 724 681 c 1,9,10
 835 654 835 654 920 568.5 c 128,-1,11
 1005 483 1005 483 1005 359 c 0,12,13
 1005 0 1005 0 516 0 c 2,14,-1
 156 0 l 1,0,-1
320 124 m 1,15,-1
 504 124 l 2,16,17
 684 124 684 124 766.5 181 c 128,-1,18
 849 238 849 238 849 358 c 128,-1,19
 849 478 849 478 752 547.5 c 128,-1,20
 655 617 655 617 490 617 c 2,21,-1
 320 617 l 1,22,-1
 320 124 l 1,15,-1
320 735 m 1,23,-1
 470 735 l 2,24,25
 584 735 584 735 624 746.5 c 128,-1,26
 664 758 664 758 694.5 772.5 c 128,-1,27
 725 787 725 787 743 807 c 0,28,29
 786 855 786 855 786 932 c 0,30,31
 786 1039 786 1039 708.5 1078.5 c 128,-1,32
 631 1118 631 1118 470 1118 c 2,33,-1
 320 1118 l 1,34,-1
 320 735 l 1,23,-1
EndSplineSet
EndChar

StartChar: C
Encoding: 67 67 38
Width: 1287
GlyphClass: 2
Flags: W
AnchorPoint: "Anchor-1" 777 1241 basechar 0
AnchorPoint: "Anchor-0" 791 0 basechar 0
LayerCount: 2
Fore
SplineSet
1174 59 m 1,0,1
 972 -34 972 -34 797.5 -34 c 128,-1,2
 623 -34 623 -34 498.5 12 c 128,-1,3
 374 58 374 58 284.5 141.5 c 128,-1,4
 195 225 195 225 145 349 c 128,-1,5
 95 473 95 473 95 647 c 128,-1,6
 95 821 95 821 183 970.5 c 128,-1,7
 271 1120 271 1120 424 1197 c 128,-1,8
 577 1274 577 1274 772 1274 c 0,9,10
 893 1274 893 1274 1004.5 1239 c 128,-1,11
 1116 1204 1116 1204 1174 1170 c 1,12,-1
 1174 1028 l 1,13,14
 977 1136 977 1136 761.5 1136 c 128,-1,15
 546 1136 546 1136 403.5 1002.5 c 128,-1,16
 261 869 261 869 261 622 c 128,-1,17
 261 375 261 375 405 239.5 c 128,-1,18
 549 104 549 104 784 104 c 0,19,20
 878 104 878 104 984 132.5 c 128,-1,21
 1090 161 1090 161 1174 208 c 1,22,-1
 1174 59 l 1,0,1
EndSplineSet
EndChar

StartChar: D
Encoding: 68 68 39
Width: 1399
GlyphClass: 2
Flags: W
AnchorPoint: "Anchor-1" 708 1242 basechar 0
LayerCount: 2
Fore
SplineSet
156 0 m 1,0,-1
 156 1241 l 1,1,-1
 675 1241 l 2,2,3
 976 1241 976 1241 1138 1074 c 128,-1,4
 1300 907 1300 907 1300 628 c 0,5,6
 1300 422 1300 422 1191 264 c 0,7,8
 1076 98 1076 98 876 34 c 0,9,10
 770 0 770 0 645 0 c 2,11,-1
 156 0 l 1,0,-1
318 131 m 1,12,-1
 624 131 l 2,13,14
 856 131 856 131 995 268.5 c 128,-1,15
 1134 406 1134 406 1134 635.5 c 128,-1,16
 1134 865 1134 865 1011 987.5 c 128,-1,17
 888 1110 888 1110 672 1110 c 2,18,-1
 318 1110 l 1,19,-1
 318 131 l 1,12,-1
EndSplineSet
EndChar

StartChar: E
Encoding: 69 69 40
Width: 973
GlyphClass: 2
Flags: W
AnchorPoint: "Anchor-1" 585 1241 basechar 0
AnchorPoint: "Anchor-0" 743 0 basechar 0
LayerCount: 2
Fore
SplineSet
186 0 m 1,0,-1
 186 1241 l 1,1,-1
 906 1241 l 1,2,-1
 906 1104 l 1,3,-1
 348 1104 l 1,4,-1
 348 708 l 1,5,-1
 843 708 l 1,6,-1
 843 572 l 1,7,-1
 346 572 l 1,8,-1
 346 139 l 1,9,-1
 916 139 l 1,10,-1
 916 0 l 1,11,-1
 186 0 l 1,0,-1
EndSplineSet
EndChar

StartChar: F
Encoding: 70 70 41
Width: 931
GlyphClass: 2
Flags: W
AnchorPoint: "Anchor-1" 525 1241 basechar 0
LayerCount: 2
Fore
SplineSet
186 0 m 1,0,-1
 186 1241 l 1,1,-1
 830 1241 l 1,2,-1
 830 1104 l 1,3,-1
 348 1104 l 1,4,-1
 348 730 l 1,5,-1
 764 730 l 1,6,-1
 764 593 l 1,7,-1
 347 593 l 1,8,-1
 347 0 l 1,9,-1
 186 0 l 1,0,-1
EndSplineSet
EndChar

StartChar: G
Encoding: 71 71 42
Width: 1391
GlyphClass: 2
Flags: W
AnchorPoint: "Anchor-1" 775 1242 basechar 0
AnchorPoint: "Anchor-0" 763 0 basechar 0
LayerCount: 2
Fore
SplineSet
1137 182 m 1,0,-1
 1137 539 l 1,1,-1
 794 539 l 1,2,-1
 794 672 l 1,3,-1
 1291 672 l 1,4,-1
 1291 105 l 1,5,6
 1174 37 1174 37 1056.5 1.5 c 128,-1,7
 939 -34 939 -34 797.5 -34 c 128,-1,8
 656 -34 656 -34 560 -7 c 128,-1,9
 464 20 464 20 380 75 c 128,-1,10
 296 130 296 130 232 206 c 0,11,12
 94 372 94 372 95 621 c 0,13,14
 95 769 95 769 148.5 893 c 0,15,16
 202 1018 202 1018 294 1100 c 0,17,18
 488 1274 488 1274 771 1274 c 0,19,20
 970 1274 970 1274 1181 1184 c 1,21,-1
 1181 1038 l 1,22,23
 985 1136 985 1136 785 1136 c 0,24,25
 563 1136 563 1136 417 1012 c 0,26,27
 262 880 262 880 262 621 c 0,28,29
 262 491 262 491 305.5 389 c 0,30,31
 348 286 348 286 422 226 c 0,32,33
 571 104 571 104 769.5 104 c 129,-1,34
 968 104 968 104 1137 182 c 1,0,-1
EndSplineSet
EndChar

StartChar: H
Encoding: 72 72 43
Width: 1338
GlyphClass: 2
Flags: W
AnchorPoint: "Anchor-1" 706 1242 basechar 0
LayerCount: 2
Fore
SplineSet
156 0 m 1,0,-1
 156 1241 l 1,1,-1
 322 1241 l 1,2,-1
 322 721 l 1,3,-1
 1016 721 l 1,4,-1
 1016 1241 l 1,5,-1
 1182 1241 l 1,6,-1
 1182 0 l 1,7,-1
 1016 0 l 1,8,-1
 1016 585 l 1,9,-1
 322 585 l 1,10,-1
 322 0 l 1,11,-1
 156 0 l 1,0,-1
EndSplineSet
EndChar

StartChar: I
Encoding: 73 73 44
Width: 586
GlyphClass: 2
Flags: W
AnchorPoint: "Anchor-1" 296 1241 basechar 0
AnchorPoint: "Anchor-0" 298 0 basechar 0
LayerCount: 2
Fore
SplineSet
210 0 m 1,0,-1
 210 1241 l 1,1,-1
 376 1241 l 1,2,-1
 376 0 l 1,3,-1
 210 0 l 1,0,-1
EndSplineSet
EndChar

StartChar: J
Encoding: 74 74 45
Width: 988
GlyphClass: 2
Flags: W
AnchorPoint: "Anchor-1" 696 1241 basechar 0
LayerCount: 2
Fore
SplineSet
401 -19 m 0,0,1
 274 -19 274 -19 154 46 c 1,2,-1
 154 179 l 1,3,4
 302 111 302 111 404 111 c 0,5,6
 506 111 506 111 559.5 186.5 c 128,-1,7
 613 262 613 262 613 445 c 2,8,-1
 613 1241 l 1,9,-1
 774 1241 l 1,10,-1
 774 455 l 2,11,12
 774 205 774 205 689 93 c 128,-1,13
 604 -19 604 -19 401 -19 c 0,0,1
EndSplineSet
EndChar

StartChar: K
Encoding: 75 75 46
Width: 1138
GlyphClass: 2
Flags: W
AnchorPoint: "Anchor-1" 585 1241 basechar 0
AnchorPoint: "Anchor-0" 553 0 basechar 0
LayerCount: 2
Fore
SplineSet
156 0 m 1,0,-1
 156 1241 l 1,1,-1
 320 1241 l 1,2,-1
 320 674 l 1,3,-1
 873 1241 l 1,4,-1
 1071 1241 l 1,5,-1
 490 641 l 1,6,-1
 1113 0 l 1,7,-1
 910 0 l 1,8,-1
 320 608 l 1,9,-1
 320 0 l 1,10,-1
 156 0 l 1,0,-1
EndSplineSet
EndChar

StartChar: L
Encoding: 76 76 47
Width: 1009
GlyphClass: 2
Flags: W
AnchorPoint: "Anchor-1" 714 459 basechar 0
AnchorPoint: "Anchor-0" 553 0 basechar 0
LayerCount: 2
Fore
SplineSet
186 0 m 1,0,-1
 186 1241 l 1,1,-1
 351 1241 l 1,2,-1
 351 139 l 1,3,-1
 883 139 l 1,4,-1
 883 0 l 1,5,-1
 186 0 l 1,0,-1
EndSplineSet
EndChar

StartChar: M
Encoding: 77 77 48
Width: 1688
GlyphClass: 2
Flags: W
AnchorPoint: "Anchor-1" 863 1241 basechar 0
LayerCount: 2
Fore
SplineSet
844 17 m 1,0,-1
 380 835 l 1,1,-1
 252 0 l 1,2,-1
 88 0 l 1,3,-1
 298 1282 l 1,4,-1
 844 304 l 1,5,-1
 1392 1282 l 1,6,-1
 1600 0 l 1,7,-1
 1438 0 l 1,8,-1
 1308 835 l 1,9,-1
 844 17 l 1,0,-1
EndSplineSet
EndChar

StartChar: N
Encoding: 78 78 49
Width: 1362
GlyphClass: 2
Flags: W
AnchorPoint: "Anchor-1" 679 1241 basechar 0
LayerCount: 2
Fore
SplineSet
1206 -37 m 1,0,-1
 322 892 l 1,1,-1
 322 0 l 1,2,-1
 156 0 l 1,3,-1
 156 1273 l 1,4,-1
 1040 339 l 1,5,-1
 1040 1241 l 1,6,-1
 1206 1241 l 1,7,-1
 1206 -37 l 1,0,-1
EndSplineSet
EndChar

StartChar: O
Encoding: 79 79 50
Width: 1526
GlyphClass: 2
Flags: W
AnchorPoint: "Anchor-1" 761 1241 basechar 0
AnchorPoint: "Anchor-0" 775 0 basechar 0
LayerCount: 2
Fore
SplineSet
576 136 m 128,-1,1
 664 104 664 104 759 104 c 128,-1,2
 854 104 854 104 941.5 136 c 128,-1,3
 1029 168 1029 168 1101.5 229.5 c 128,-1,4
 1174 291 1174 291 1218 392 c 128,-1,5
 1262 493 1262 493 1262 619.5 c 128,-1,6
 1262 746 1262 746 1221 847 c 128,-1,7
 1180 948 1180 948 1110 1010 c 0,8,9
 967 1137 967 1137 762 1137 c 0,10,11
 556 1137 556 1137 414 1010 c 0,12,13
 264 877 264 877 264 619 c 0,14,15
 264 492 264 492 305.5 391.5 c 128,-1,16
 347 291 347 291 417.5 229.5 c 128,-1,0
 488 168 488 168 576 136 c 128,-1,1
1009 7.5 m 128,-1,18
 891 -34 891 -34 775.5 -34 c 128,-1,19
 660 -34 660 -34 563.5 -8.5 c 128,-1,20
 467 17 467 17 382 70.5 c 128,-1,21
 297 124 297 124 234 200 c 0,22,23
 97 365 97 365 97 619 c 0,24,25
 97 990 97 990 382 1170 c 0,26,27
 548 1274 548 1274 761 1274 c 0,28,29
 1026 1274 1026 1274 1221 1112 c 0,30,31
 1316 1034 1316 1034 1372.5 907 c 128,-1,32
 1429 780 1429 780 1429 622 c 128,-1,33
 1429 464 1429 464 1372.5 336 c 128,-1,34
 1316 208 1316 208 1221.5 128.5 c 128,-1,17
 1127 49 1127 49 1009 7.5 c 128,-1,18
EndSplineSet
EndChar

StartChar: P
Encoding: 80 80 51
Width: 1063
GlyphClass: 2
Flags: W
AnchorPoint: "Anchor-1" 577 1241 basechar 0
LayerCount: 2
Fore
SplineSet
201 0 m 1,0,-1
 201 1241 l 1,1,-1
 531 1241 l 2,2,3
 758 1241 758 1241 881.5 1151 c 128,-1,4
 1005 1061 1005 1061 1005 882 c 0,5,6
 1005 640 1005 640 799 562 c 0,7,8
 686 520 686 520 518 519 c 2,9,-1
 365 519 l 1,10,-1
 365 0 l 1,11,-1
 201 0 l 1,0,-1
364 632 m 1,12,-1
 530 632 l 2,13,14
 845 632 845 632 845 877 c 0,15,16
 845 990 845 990 769 1055.5 c 128,-1,17
 693 1121 693 1121 525 1121 c 2,18,-1
 364 1121 l 1,19,-1
 364 632 l 1,12,-1
EndSplineSet
EndChar

StartChar: Q
Encoding: 81 81 52
Width: 1526
GlyphClass: 2
Flags: W
LayerCount: 2
Fore
SplineSet
1071 205 m 1,0,1
 1262 349 1262 349 1262 618 c 0,2,3
 1262 746 1262 746 1221 847 c 128,-1,4
 1180 948 1180 948 1110 1010 c 0,5,6
 967 1137 967 1137 762 1137 c 0,7,8
 556 1137 556 1137 414 1010 c 0,9,10
 264 877 264 877 264 619 c 0,11,12
 264 492 264 492 305.5 391.5 c 0,13,14
 348 292 348 292 418 230 c 0,15,16
 562 105 562 105 761 104 c 0,17,18
 868 104 868 104 966 145 c 1,19,-1
 889 227 l 1,20,-1
 960 304 l 1,21,-1
 1071 205 l 1,0,1
134 384 m 0,22,23
 97 492 97 492 97 619.5 c 128,-1,24
 97 747 97 747 134 855.5 c 128,-1,25
 171 964 171 964 234 1040 c 128,-1,26
 297 1116 297 1116 382 1170 c 0,27,28
 548 1274 548 1274 761 1274 c 0,29,30
 1026 1274 1026 1274 1221 1112 c 0,31,32
 1316 1034 1316 1034 1372.5 907 c 128,-1,33
 1429 780 1429 780 1429 615 c 128,-1,34
 1429 450 1429 450 1364.5 318.5 c 128,-1,35
 1300 187 1300 187 1188 102 c 1,36,-1
 1374 -64 l 1,37,-1
 1251 -159 l 1,38,-1
 1072 32 l 1,39,40
 929 -34 929 -34 738.5 -34 c 128,-1,41
 548 -34 548 -34 375.5 74.5 c 128,-1,42
 203 183 203 183 134 384 c 0,22,23
EndSplineSet
EndChar

StartChar: R
Encoding: 82 82 53
Width: 1102
GlyphClass: 2
Flags: W
AnchorPoint: "Anchor-1" 560 1241 basechar 0
AnchorPoint: "Anchor-0" 613 0 basechar 0
LayerCount: 2
Fore
SplineSet
201 0 m 1,0,-1
 201 1241 l 1,1,-1
 501 1241 l 2,2,3
 726 1241 726 1241 849 1157.5 c 128,-1,4
 972 1074 972 1074 972 906 c 0,5,6
 972 601 972 601 568 576 c 1,7,-1
 1058 0 l 1,8,-1
 863 0 l 1,9,-1
 399 564 l 1,10,-1
 365 564 l 1,11,-1
 365 0 l 1,12,-1
 201 0 l 1,0,-1
364 677 m 1,13,-1
 460 677 l 2,14,15
 720 677 720 677 786 792 c 0,16,17
 812 837 812 837 812 901 c 0,18,19
 812 1010 812 1010 738 1065.5 c 128,-1,20
 664 1121 664 1121 495 1121 c 2,21,-1
 364 1121 l 1,22,-1
 364 677 l 1,13,-1
EndSplineSet
EndChar

StartChar: S
Encoding: 83 83 54
Width: 956
GlyphClass: 2
Flags: W
AnchorPoint: "Anchor-1" 495 1241 basechar 0
AnchorPoint: "Anchor-0" 503 0 basechar 0
LayerCount: 2
Fore
SplineSet
647.5 -14.5 m 128,-1,1
 582 -34 582 -34 515.5 -34 c 128,-1,2
 449 -34 449 -34 391.5 -24 c 128,-1,3
 334 -14 334 -14 300 -5 c 128,-1,4
 266 4 266 4 222 25 c 0,5,6
 176 47 176 47 134 73 c 1,7,-1
 134 216 l 1,8,9
 202 170 202 170 298.5 136.5 c 128,-1,10
 395 103 395 103 501.5 103 c 128,-1,11
 608 103 608 103 665 151.5 c 128,-1,12
 722 200 722 200 722 283 c 0,13,14
 722 402 722 402 565 500 c 1,15,-1
 299 671 l 2,16,17
 103 796 103 796 103 959 c 0,18,19
 103 1094 103 1094 203 1184 c 128,-1,20
 303 1274 303 1274 485.5 1274 c 128,-1,21
 668 1274 668 1274 817 1199 c 1,22,-1
 817 1056 l 1,23,24
 756 1089 756 1089 667.5 1114 c 128,-1,25
 579 1139 579 1139 480.5 1139 c 128,-1,26
 382 1139 382 1139 321.5 1090.5 c 128,-1,27
 261 1042 261 1042 261 966 c 0,28,29
 261 868 261 868 399 778 c 1,30,-1
 645 620 l 2,31,32
 773 537 773 537 826.5 459 c 128,-1,33
 880 381 880 381 880 295 c 128,-1,34
 880 209 880 209 849 145.5 c 128,-1,35
 818 82 818 82 765.5 43.5 c 128,-1,0
 713 5 713 5 647.5 -14.5 c 128,-1,1
EndSplineSet
EndChar

StartChar: T
Encoding: 84 84 55
Width: 1122
GlyphClass: 2
Flags: W
AnchorPoint: "Anchor-1" 560 1241 basechar 0
AnchorPoint: "Anchor-0" 560 0 basechar 0
LayerCount: 2
Fore
SplineSet
478 0 m 1,0,-1
 478 1102 l 1,1,-1
 90 1102 l 1,2,-1
 90 1241 l 1,3,-1
 1032 1241 l 1,4,-1
 1032 1102 l 1,5,-1
 644 1102 l 1,6,-1
 644 0 l 1,7,-1
 478 0 l 1,0,-1
EndSplineSet
EndChar

StartChar: U
Encoding: 85 85 56
Width: 1402
GlyphClass: 2
Flags: W
AnchorPoint: "Anchor-1" 720 1241 basechar 0
AnchorPoint: "Anchor-0" 706 0 basechar 0
LayerCount: 2
Fore
SplineSet
701 -34 m 128,-1,1
 454 -34 454 -34 301.5 102 c 128,-1,2
 149 238 149 238 149 493 c 2,3,-1
 149 1241 l 1,4,-1
 311 1241 l 1,5,-1
 311 484 l 2,6,7
 311 289 311 289 415 194.5 c 128,-1,8
 519 100 519 100 701 100 c 128,-1,9
 883 100 883 100 987 194.5 c 128,-1,10
 1091 289 1091 289 1091 484 c 2,11,-1
 1091 1241 l 1,12,-1
 1253 1241 l 1,13,-1
 1253 493 l 2,14,15
 1253 238 1253 238 1100.5 102 c 128,-1,0
 948 -34 948 -34 701 -34 c 128,-1,1
EndSplineSet
EndChar

StartChar: V
Encoding: 86 86 57
Width: 1264
GlyphClass: 2
Flags: W
LayerCount: 2
Fore
SplineSet
644 -35 m 1,0,-1
 47 1241 l 1,1,-1
 220 1241 l 1,2,-1
 643 327 l 1,3,-1
 1039 1241 l 1,4,-1
 1217 1241 l 1,5,-1
 644 -35 l 1,0,-1
EndSplineSet
EndChar

StartChar: W
Encoding: 87 87 58
Width: 1757
GlyphClass: 2
Flags: W
AnchorPoint: "Anchor-1" 876 1241 basechar 0
LayerCount: 2
Fore
SplineSet
548 -36 m 1,0,-1
 28 1241 l 1,1,-1
 198 1241 l 1,2,-1
 546 367 l 1,3,-1
 876 1240 l 1,4,-1
 1232 367 l 1,5,-1
 1552 1241 l 1,6,-1
 1728 1241 l 1,7,-1
 1242 -35 l 1,8,-1
 880 850 l 1,9,-1
 548 -36 l 1,0,-1
EndSplineSet
EndChar

StartChar: X
Encoding: 88 88 59
Width: 1519
GlyphClass: 2
Flags: W
LayerCount: 2
Fore
SplineSet
740 746 m 1,0,-1
 1166 1241 l 1,1,-1
 1366 1241 l 1,2,-1
 844 631 l 1,3,-1
 1418 0 l 1,4,-1
 1224 0 l 1,5,-1
 752 523 l 1,6,-1
 306 0 l 1,7,-1
 100 0 l 1,8,-1
 648 638 l 1,9,-1
 104 1241 l 1,10,-1
 290 1241 l 1,11,-1
 740 746 l 1,0,-1
EndSplineSet
EndChar

StartChar: Y
Encoding: 89 89 60
Width: 1259
GlyphClass: 2
Flags: W
AnchorPoint: "Anchor-1" 637 1241 basechar 0
LayerCount: 2
Fore
SplineSet
554 0 m 1,0,-1
 554 476 l 1,1,-1
 120 1241 l 1,2,-1
 286 1241 l 1,3,-1
 638 616 l 1,4,-1
 966 1241 l 1,5,-1
 1140 1241 l 1,6,-1
 720 472 l 1,7,-1
 720 0 l 1,8,-1
 554 0 l 1,0,-1
EndSplineSet
EndChar

StartChar: Z
Encoding: 90 90 61
Width: 1059
GlyphClass: 2
Flags: W
AnchorPoint: "Anchor-1" 515 1241 basechar 0
LayerCount: 2
Fore
SplineSet
106 0 m 1,0,-1
 677 1102 l 1,1,-1
 138 1102 l 1,2,-1
 138 1241 l 1,3,-1
 919 1241 l 1,4,-1
 357 139 l 1,5,-1
 919 139 l 1,6,-1
 919 0 l 1,7,-1
 106 0 l 1,0,-1
EndSplineSet
EndChar

StartChar: bracketleft
Encoding: 91 91 62
Width: 737
GlyphClass: 2
Flags: W
LayerCount: 2
Fore
SplineSet
151 0 m 1,0,-1
 151 1241 l 1,1,-1
 595 1241 l 1,2,-1
 595 1112 l 1,3,-1
 316 1112 l 1,4,-1
 316 129 l 1,5,-1
 595 129 l 1,6,-1
 595 0 l 1,7,-1
 151 0 l 1,0,-1
EndSplineSet
EndChar

StartChar: backslash
Encoding: 92 92 63
Width: 831
GlyphClass: 2
Flags: W
LayerCount: 2
Fore
SplineSet
770 0 m 1,0,-1
 622 0 l 1,1,-1
 65 1241 l 1,2,-1
 214 1241 l 1,3,-1
 770 0 l 1,0,-1
EndSplineSet
EndChar

StartChar: bracketright
Encoding: 93 93 64
Width: 736
GlyphClass: 2
Flags: W
LayerCount: 2
Fore
SplineSet
143 0 m 1,0,-1
 143 129 l 1,1,-1
 421 129 l 1,2,-1
 421 1112 l 1,3,-1
 143 1112 l 1,4,-1
 143 1241 l 1,5,-1
 586 1241 l 1,6,-1
 586 0 l 1,7,-1
 143 0 l 1,0,-1
EndSplineSet
EndChar

StartChar: underscore
Encoding: 95 95 66
Width: 1005
GlyphClass: 2
Flags: W
LayerCount: 2
Fore
SplineSet
153 -125 m 1,0,-1
 153 0 l 1,1,-1
 851 0 l 1,2,-1
 851 -125 l 1,3,-1
 153 -125 l 1,0,-1
EndSplineSet
EndChar

StartChar: grave
Encoding: 96 96 67
Width: 459
GlyphClass: 4
Flags: W
AnchorPoint: "Anchor-1" 356 0 mark 0
LayerCount: 2
Fore
SplineSet
390 135 m 0,0,1
 390 111 390 111 368 111 c 0,2,3
 355 111 355 111 343 124 c 2,4,-1
 99 406 l 2,5,6
 76 433 76 433 76 460.5 c 128,-1,7
 76 488 76 488 97.5 508 c 128,-1,8
 119 528 119 528 156 528 c 128,-1,9
 193 528 193 528 220 475 c 2,10,-1
 385 153 l 2,11,12
 390 144 390 144 390 135 c 0,0,1
EndSplineSet
EndChar

StartChar: a
Encoding: 97 97 68
Width: 912
GlyphClass: 2
Flags: W
AnchorPoint: "Anchor-1" 443 836 basechar 0
AnchorPoint: "Anchor-0" 784 0 basechar 0
LayerCount: 2
Fore
SplineSet
395 95 m 0,0,1
 505 95 505 95 588 185 c 1,2,-1
 588 415 l 1,3,4
 586 414 586 414 509 394.5 c 128,-1,5
 432 375 432 375 430 374 c 0,6,7
 277 332 277 332 277 215 c 0,8,9
 277 163 277 163 309 129 c 128,-1,10
 341 95 341 95 395 95 c 0,0,1
365 -18 m 0,11,12
 261 -18 261 -18 190.5 42.5 c 128,-1,13
 120 103 120 103 120 201 c 0,14,15
 120 304 120 304 202 373 c 0,16,17
 277 436 277 436 435 471 c 2,18,-1
 589 506 l 1,19,-1
 589 546 l 2,20,21
 590 674 590 674 512 710 c 0,22,23
 475 728 475 728 396.5 728 c 128,-1,24
 318 728 318 728 169 652 c 1,25,-1
 125 767 l 1,26,27
 198 811 198 811 286.5 832 c 128,-1,28
 375 853 375 853 438 853 c 128,-1,29
 501 853 501 853 553 837 c 128,-1,30
 605 821 605 821 649 789 c 0,31,32
 745 719 745 719 745 578 c 2,33,-1
 745 232 l 2,34,35
 745 177 745 177 774.5 148.5 c 128,-1,36
 804 120 804 120 846 120 c 2,37,-1
 861 120 l 1,38,-1
 824 -9 l 1,39,-1
 816 -9 l 2,40,41
 708 -8 708 -8 636 74 c 0,42,43
 622 90 622 90 616 102 c 1,44,45
 507 -18 507 -18 365 -18 c 0,11,12
EndSplineSet
EndChar

StartChar: b
Encoding: 98 98 69
Width: 1078
GlyphClass: 2
Flags: W
LayerCount: 2
Fore
SplineSet
314 771 m 1,0,1
 437 853 437 853 596 853 c 128,-1,2
 755 853 755 853 865 730 c 128,-1,3
 975 607 975 607 975 414.5 c 128,-1,4
 975 222 975 222 848 102.5 c 128,-1,5
 721 -17 721 -17 504 -17 c 0,6,7
 353 -17 353 -17 156 45 c 1,8,-1
 156 1224 l 1,9,-1
 314 1249 l 1,10,-1
 314 771 l 1,0,1
497 104 m 0,11,12
 642 104 642 104 730.5 184 c 128,-1,13
 819 264 819 264 819 413 c 0,14,15
 818 542 818 542 758 631 c 0,16,17
 692 729 692 729 557 729 c 0,18,19
 495 729 495 729 446.5 711 c 128,-1,20
 398 693 398 693 374 683 c 128,-1,21
 350 673 350 673 332.5 664 c 128,-1,22
 315 655 315 655 314 655 c 1,23,-1
 314 126 l 1,24,25
 418 104 418 104 497 104 c 0,11,12
EndSplineSet
EndChar

StartChar: c
Encoding: 99 99 70
Width: 908
GlyphClass: 2
Flags: W
AnchorPoint: "Anchor-1" 566 836 basechar 0
AnchorPoint: "Anchor-0" 570 0 basechar 0
LayerCount: 2
Fore
SplineSet
572 -18 m 0,0,1
 358 -18 358 -18 230 103.5 c 0,2,3
 102 224 102 224 102 418 c 128,-1,4
 102 612 102 612 232.5 732.5 c 128,-1,5
 363 853 363 853 568 853 c 0,6,7
 716 853 716 853 816 792 c 1,8,-1
 816 660 l 1,9,10
 722 725 722 725 572 725 c 128,-1,11
 422 725 422 725 338 636.5 c 128,-1,12
 254 548 254 548 254 416 c 128,-1,13
 254 284 254 284 335.5 196.5 c 0,14,15
 418 109 418 109 556 109 c 128,-1,16
 694 109 694 109 816 177 c 1,17,-1
 816 46 l 1,18,19
 701 -18 701 -18 572 -18 c 0,0,1
EndSplineSet
EndChar

StartChar: d
Encoding: 100 100 71
Width: 1078
GlyphClass: 2
Flags: W
LayerCount: 2
Fore
SplineSet
574 -17 m 0,0,1
 356 -17 356 -17 229 102.5 c 128,-1,2
 102 222 102 222 102 414 c 128,-1,3
 102 606 102 606 212.5 729.5 c 128,-1,4
 323 853 323 853 495 853 c 0,5,6
 636 853 636 853 754 784 c 0,7,8
 762 779 762 779 764 779 c 1,9,-1
 764 1224 l 1,10,-1
 922 1248 l 1,11,-1
 922 45 l 1,12,13
 725 -17 725 -17 574 -17 c 0,0,1
581 104 m 0,14,15
 662 104 662 104 764 126 c 1,16,-1
 764 662 l 1,17,18
 763 662 763 662 751.5 668.5 c 128,-1,19
 740 675 740 675 726.5 681.5 c 128,-1,20
 713 688 713 688 691 697 c 128,-1,21
 669 706 669 706 646 713 c 0,22,23
 593 729 593 729 529 729 c 128,-1,24
 465 729 465 729 410.5 703 c 128,-1,25
 356 677 356 677 324 632 c 0,26,27
 258 541 258 541 258 402.5 c 128,-1,28
 258 264 258 264 347 184 c 128,-1,29
 436 104 436 104 581 104 c 0,14,15
EndSplineSet
EndChar

StartChar: e
Encoding: 101 101 72
Width: 964
GlyphClass: 2
Flags: W
AnchorPoint: "Anchor-1" 499 836 basechar 0
AnchorPoint: "Anchor-0" 652 0 basechar 0
LayerCount: 2
Fore
SplineSet
569 -17 m 0,0,1
 372 -18 372 -18 240 94 c 0,2,3
 102 210 102 210 102 433 c 0,4,5
 102 613 102 613 218 733 c 128,-1,6
 334 853 334 853 504 853 c 0,7,8
 694 853 694 853 788 721 c 0,9,10
 876 598 876 598 875 419 c 2,11,-1
 875 388 l 1,12,-1
 254 388 l 1,13,14
 267 244 267 244 354 174.5 c 128,-1,15
 441 105 441 105 572 105 c 0,16,17
 692 105 692 105 778 147 c 0,18,19
 806 161 806 161 849 185 c 1,20,-1
 849 57 l 1,21,22
 722 -17 722 -17 569 -17 c 0,0,1
263 493 m 1,23,-1
 743 493 l 1,24,25
 735 597 735 597 677.5 665.5 c 128,-1,26
 620 734 620 734 521 734 c 0,27,28
 376 734 376 734 304 608 c 0,29,30
 273 553 273 553 263 493 c 1,23,-1
EndSplineSet
EndChar

StartChar: f
Encoding: 102 102 73
Width: 625
GlyphClass: 2
Flags: W
LayerCount: 2
Fore
SplineSet
204 0 m 1,0,-1
 204 710 l 1,1,-1
 86 710 l 1,2,-1
 86 835 l 1,3,-1
 201 835 l 1,4,-1
 201 902 l 2,5,6
 201 1051 201 1051 273 1136 c 128,-1,7
 345 1221 345 1221 482 1221 c 0,8,9
 546 1221 546 1221 639 1193 c 1,10,-1
 639 1062 l 1,11,12
 546 1087 546 1087 509 1087 c 0,13,14
 361 1087 361 1087 361 902 c 2,15,-1
 361 835 l 1,16,-1
 541 835 l 1,17,-1
 541 710 l 1,18,-1
 363 710 l 1,19,-1
 363 0 l 1,20,-1
 204 0 l 1,0,-1
EndSplineSet
EndChar

StartChar: g
Encoding: 103 103 74
Width: 1070
GlyphClass: 2
Flags: W
AnchorPoint: "Anchor-1" 529 836 basechar 0
LayerCount: 2
Fore
SplineSet
774 25 m 1,0,1
 616 -16 616 -16 569 -16 c 0,2,3
 567 -16 567 -16 565 -16 c 1,4,5
 344 -16 344 -16 223 104.5 c 128,-1,6
 102 225 102 225 102 413.5 c 128,-1,7
 102 602 102 602 214 727.5 c 128,-1,8
 326 853 326 853 501 853 c 0,9,10
 570 853 570 853 636 834 c 0,11,12
 738 804 738 804 769 773 c 1,13,-1
 769 835 l 1,14,-1
 927 835 l 1,15,-1
 927 -16 l 2,16,17
 927 -206 927 -206 829 -299.5 c 128,-1,18
 731 -393 731 -393 581.5 -393 c 128,-1,19
 432 -393 432 -393 299 -338 c 1,20,-1
 299 -210 l 1,21,22
 420 -264 420 -264 572 -264 c 0,23,24
 665 -264 665 -264 719.5 -206 c 128,-1,25
 774 -148 774 -148 774 -37 c 2,26,-1
 774 25 l 1,0,1
569 105 m 0,27,28
 653 105 653 105 769 137 c 1,29,-1
 769 661 l 1,30,31
 656 729 656 729 562.5 729 c 128,-1,32
 469 729 469 729 413.5 702.5 c 128,-1,33
 358 676 358 676 324 630 c 0,34,35
 258 540 258 540 258 400.5 c 128,-1,36
 258 261 258 261 337 183 c 128,-1,37
 416 105 416 105 569 105 c 0,27,28
EndSplineSet
EndChar

StartChar: h
Encoding: 104 104 75
Width: 1177
GlyphClass: 2
Flags: W
AnchorPoint: "Anchor-1" 654 1240 basechar 0
LayerCount: 2
Fore
SplineSet
170 0 m 1,0,-1
 170 1223 l 1,1,-1
 329 1249 l 1,2,-1
 329 713 l 1,3,4
 485 853 485 853 681 853 c 0,5,6
 807 853 807 853 898.5 776 c 128,-1,7
 990 699 990 699 990 580 c 2,8,-1
 990 0 l 1,9,-1
 830 0 l 1,10,-1
 830 559 l 2,11,12
 830 650 830 650 780 690.5 c 128,-1,13
 730 731 730 731 628 731 c 0,14,15
 504 731 504 731 388 646 c 0,16,17
 339 610 339 610 329 592 c 1,18,-1
 329 0 l 1,19,-1
 170 0 l 1,0,-1
EndSplineSet
EndChar

StartChar: i
Encoding: 105 105 76
Width: 516
GlyphClass: 2
Flags: W
AnchorPoint: "Anchor-0" 254 0 basechar 0
LayerCount: 2
Fore
SplineSet
338 1047 m 128,-1,1
 310 1016 310 1016 261.5 1016 c 128,-1,2
 213 1016 213 1016 184.5 1047 c 128,-1,3
 156 1078 156 1078 156 1119.5 c 128,-1,4
 156 1161 156 1161 184.5 1192.5 c 128,-1,5
 213 1224 213 1224 261 1224 c 128,-1,6
 309 1224 309 1224 337.5 1192.5 c 128,-1,7
 366 1161 366 1161 366 1119.5 c 128,-1,0
 366 1078 366 1078 338 1047 c 128,-1,1
182 0 m 1,8,-1
 182 835 l 1,9,-1
 340 835 l 1,10,-1
 340 0 l 1,11,-1
 182 0 l 1,8,-1
EndSplineSet
EndChar

StartChar: j
Encoding: 106 106 77
Width: 539
GlyphClass: 2
Flags: W
LayerCount: 2
Fore
SplineSet
358 1073 m 128,-1,1
 330 1042 330 1042 281.5 1042 c 128,-1,2
 233 1042 233 1042 204 1073 c 128,-1,3
 175 1104 175 1104 175 1146 c 128,-1,4
 175 1188 175 1188 204 1219 c 128,-1,5
 233 1250 233 1250 281.5 1250 c 128,-1,6
 330 1250 330 1250 358 1218.5 c 128,-1,7
 386 1187 386 1187 386 1145.5 c 128,-1,0
 386 1104 386 1104 358 1073 c 128,-1,1
46 -330 m 1,8,-1
 17 -202 l 1,9,10
 41 -199 41 -199 46 -199 c 0,11,12
 123 -190 123 -190 166 -159 c 128,-1,13
 209 -128 209 -128 209 -57 c 2,14,-1
 209 835 l 1,15,-1
 368 835 l 1,16,-1
 368 -67 l 2,17,18
 368 -317 368 -317 46 -330 c 1,8,-1
EndSplineSet
EndChar

StartChar: k
Encoding: 107 107 78
Width: 926
GlyphClass: 2
Flags: W
AnchorPoint: "Anchor-1" 554 840 basechar 0
AnchorPoint: "Anchor-0" 489 0 basechar 0
LayerCount: 2
Fore
SplineSet
156 -1 m 1,0,-1
 156 1225 l 1,1,-1
 314 1248 l 1,2,-1
 314 479 l 1,3,-1
 676 834 l 1,4,-1
 872 834 l 1,5,-1
 473 447 l 1,6,-1
 930 0 l 1,7,-1
 728 0 l 1,8,-1
 314 404 l 1,9,-1
 314 -1 l 1,10,-1
 156 -1 l 1,0,-1
EndSplineSet
EndChar

StartChar: l
Encoding: 108 108 79
Width: 620
GlyphClass: 2
Flags: W
AnchorPoint: "Anchor-1" 482 510 basechar 0
AnchorPoint: "Anchor-0" 382 0 basechar 0
LayerCount: 2
Fore
SplineSet
563 15 m 1,0,1
 479 -18 479 -18 383 -18 c 128,-1,2
 287 -18 287 -18 221.5 45.5 c 128,-1,3
 156 109 156 109 156 229 c 2,4,-1
 156 1223 l 1,5,-1
 314 1249 l 1,6,-1
 314 257 l 2,7,8
 314 175 314 175 339 141.5 c 128,-1,9
 364 108 364 108 427.5 108 c 128,-1,10
 491 108 491 108 563 134 c 1,11,-1
 563 15 l 1,0,1
EndSplineSet
EndChar

StartChar: m
Encoding: 109 109 80
Width: 1686
GlyphClass: 2
Flags: W
AnchorPoint: "Anchor-1" 894 836 basechar 0
LayerCount: 2
Fore
SplineSet
1204 729 m 0,0,1
 1047 729 1047 729 930 593 c 1,2,-1
 930 0 l 1,3,-1
 773 0 l 1,4,-1
 773 559 l 2,5,6
 773 650 773 650 729 689.5 c 128,-1,7
 685 729 685 729 609 729 c 128,-1,8
 533 729 533 729 480.5 710.5 c 128,-1,9
 428 692 428 692 393 665 c 0,10,11
 334 619 334 619 314 592 c 1,12,-1
 314 0 l 1,13,-1
 156 0 l 1,14,-1
 156 835 l 1,15,-1
 311 835 l 1,16,-1
 311 713 l 1,17,18
 434 853 434 853 640 853 c 0,19,20
 728 853 728 853 797.5 812 c 128,-1,21
 867 771 867 771 900 703 c 1,22,23
 954 755 954 755 993 780 c 0,24,25
 1106 853 1106 853 1242.5 853 c 128,-1,26
 1379 853 1379 853 1464 778.5 c 128,-1,27
 1549 704 1549 704 1549 577 c 2,28,-1
 1549 0 l 1,29,-1
 1391 0 l 1,30,-1
 1391 557 l 2,31,32
 1391 650 1391 650 1346.5 689.5 c 128,-1,33
 1302 729 1302 729 1204 729 c 0,0,1
EndSplineSet
EndChar

StartChar: n
Encoding: 110 110 81
Width: 1113
GlyphClass: 2
Flags: W
AnchorPoint: "Anchor-1" 634 837 basechar 0
LayerCount: 2
Fore
SplineSet
156 0 m 1,0,-1
 156 835 l 1,1,-1
 313 835 l 1,2,-1
 313 713 l 1,3,4
 453 853 453 853 664 853 c 0,5,6
 791 853 791 853 883.5 775.5 c 128,-1,7
 976 698 976 698 976 580 c 2,8,-1
 976 0 l 1,9,-1
 816 0 l 1,10,-1
 816 559 l 2,11,12
 816 650 816 650 765 690.5 c 128,-1,13
 714 731 714 731 612 731 c 0,14,15
 487 731 487 731 374 646 c 0,16,17
 327 611 327 611 316 592 c 1,18,-1
 316 0 l 1,19,-1
 156 0 l 1,0,-1
EndSplineSet
EndChar

StartChar: o
Encoding: 111 111 82
Width: 1114
GlyphClass: 2
Flags: W
AnchorPoint: "Anchor-1" 561 836 basechar 0
AnchorPoint: "Anchor-0" 553 0 basechar 0
LayerCount: 2
Fore
SplineSet
556 -18 m 128,-1,1
 434 -18 434 -18 332 32.5 c 128,-1,2
 230 83 230 83 166 183.5 c 128,-1,3
 102 284 102 284 102 416 c 128,-1,4
 102 548 102 548 166 649.5 c 128,-1,5
 230 751 230 751 332.5 802 c 128,-1,6
 435 853 435 853 555 853 c 128,-1,7
 675 853 675 853 777 802 c 128,-1,8
 879 751 879 751 945.5 649 c 128,-1,9
 1012 547 1012 547 1012 415.5 c 128,-1,10
 1012 284 1012 284 948 183.5 c 128,-1,11
 884 83 884 83 781 32.5 c 128,-1,0
 678 -18 678 -18 556 -18 c 128,-1,1
557 106 m 0,12,13
 654 106 654 106 725 152 c 0,14,15
 863 240 863 240 863 415 c 0,16,17
 863 542 863 542 781 635.5 c 128,-1,18
 699 729 699 729 557.5 729 c 128,-1,19
 416 729 416 729 334 635.5 c 128,-1,20
 252 542 252 542 252 412.5 c 128,-1,21
 252 283 252 283 332 194.5 c 128,-1,22
 412 106 412 106 557 106 c 0,12,13
EndSplineSet
EndChar

StartChar: p
Encoding: 112 112 83
Width: 1078
GlyphClass: 2
Flags: W
LayerCount: 2
Fore
SplineSet
156 -406 m 1,0,-1
 156 835 l 1,1,-1
 315 835 l 1,2,-1
 315 763 l 1,3,4
 418 853 418 853 586.5 853 c 128,-1,5
 755 853 755 853 865 729.5 c 128,-1,6
 975 606 975 606 975 417 c 128,-1,7
 975 228 975 228 863 106.5 c 128,-1,8
 751 -15 751 -15 558 -15 c 0,9,10
 422 -15 422 -15 342 19 c 1,11,-1
 315 30 l 1,12,-1
 315 -389 l 1,13,-1
 156 -406 l 1,0,-1
315 142 m 1,14,15
 439 104 439 104 530 104 c 0,16,17
 675 104 675 104 747 192.5 c 128,-1,18
 819 281 819 281 819 424.5 c 128,-1,19
 819 568 819 568 745.5 649 c 128,-1,20
 672 730 672 730 539 730 c 0,21,22
 490 730 490 730 436 711 c 0,23,24
 359 684 359 684 315 648 c 1,25,-1
 315 142 l 1,14,15
EndSplineSet
EndChar

StartChar: q
Encoding: 113 113 84
Width: 1078
GlyphClass: 2
Flags: W
LayerCount: 2
Fore
SplineSet
763 -403 m 1,0,-1
 763 10 l 1,1,2
 690 -18 690 -18 570 -18 c 0,3,4
 355 -18 355 -18 228.5 102 c 128,-1,5
 102 222 102 222 102 417.5 c 128,-1,6
 102 613 102 613 216 733 c 128,-1,7
 330 853 330 853 515 853 c 0,8,9
 660 853 660 853 763 779 c 1,10,-1
 763 835 l 1,11,-1
 921 835 l 1,12,-1
 921 -403 l 1,13,-1
 763 -403 l 1,0,-1
580 106 m 0,14,15
 679 106 679 106 742 124 c 1,16,-1
 763 129 l 1,17,-1
 763 667 l 1,18,19
 736 688 736 688 671 710 c 128,-1,20
 606 732 606 732 538 732 c 0,21,22
 421 732 421 732 339.5 651.5 c 128,-1,23
 258 571 258 571 258 421 c 128,-1,24
 258 271 258 271 341 188.5 c 128,-1,25
 424 106 424 106 580 106 c 0,14,15
EndSplineSet
EndChar

StartChar: r
Encoding: 114 114 85
Width: 742
GlyphClass: 2
Flags: W
AnchorPoint: "Anchor-1" 494 836 basechar 0
LayerCount: 2
Fore
SplineSet
156 0 m 1,0,-1
 156 835 l 1,1,-1
 314 835 l 1,2,-1
 314 585 l 1,3,4
 325 626 325 626 377 698 c 0,5,6
 480 840 480 840 567 840 c 128,-1,7
 654 840 654 840 746 744 c 1,8,-1
 691 622 l 1,9,10
 623 685 623 685 542.5 685 c 128,-1,11
 462 685 462 685 388 595.5 c 128,-1,12
 314 506 314 506 314 403 c 2,13,-1
 314 0 l 1,14,-1
 156 0 l 1,0,-1
EndSplineSet
EndChar

StartChar: s
Encoding: 115 115 86
Width: 817
GlyphClass: 2
Flags: W
AnchorPoint: "Anchor-1" 430 837 basechar 0
AnchorPoint: "Anchor-0" 457 0 basechar 0
LayerCount: 2
Fore
SplineSet
465 -18 m 0,0,1
 381 -18 381 -18 301 2 c 0,2,3
 186 31 186 31 114 78 c 1,4,-1
 131 200 l 1,5,6
 195 160 195 160 289 132 c 128,-1,7
 383 104 383 104 449 104 c 128,-1,8
 515 104 515 104 548.5 131 c 128,-1,9
 582 158 582 158 582 196.5 c 128,-1,10
 582 235 582 235 563 259.5 c 128,-1,11
 544 284 544 284 498 308 c 2,12,-1
 285 423 l 2,13,14
 138 502 138 502 138 634 c 0,15,16
 138 723 138 723 212 788 c 128,-1,17
 286 853 286 853 423 853 c 128,-1,18
 560 853 560 853 696 788 c 1,19,-1
 664 677 l 1,20,21
 527 733 527 733 445.5 733 c 128,-1,22
 364 733 364 733 325.5 706 c 128,-1,23
 287 679 287 679 287 640.5 c 128,-1,24
 287 602 287 602 305 578.5 c 128,-1,25
 323 555 323 555 367 532 c 2,26,-1
 587 413 l 2,27,28
 730 335 730 335 730 206 c 0,29,30
 730 115 730 115 662.5 48.5 c 128,-1,31
 595 -18 595 -18 465 -18 c 0,0,1
EndSplineSet
EndChar

StartChar: t
Encoding: 116 116 87
Width: 730
GlyphClass: 2
Flags: W
AnchorPoint: "Anchor-0" 444 0 basechar 0
LayerCount: 2
Fore
SplineSet
383.5 132.5 m 128,-1,1
 417 107 417 107 491.5 107 c 128,-1,2
 566 107 566 107 672 160 c 1,3,-1
 672 43 l 1,4,5
 575 -18 575 -18 458.5 -18 c 128,-1,6
 342 -18 342 -18 267.5 39.5 c 128,-1,7
 193 97 193 97 193 197 c 2,8,-1
 193 712 l 1,9,-1
 110 712 l 2,10,11
 85 712 85 712 85 732 c 0,12,13
 85 742 85 742 93 750 c 2,14,-1
 350 1026 l 1,15,-1
 350 835 l 1,16,-1
 627 835 l 1,17,-1
 627 712 l 1,18,-1
 350 712 l 1,19,-1
 350 226 l 2,20,0
 350 158 350 158 383.5 132.5 c 128,-1,1
EndSplineSet
EndChar

StartChar: u
Encoding: 117 117 88
Width: 1115
GlyphClass: 2
Flags: W
AnchorPoint: "Anchor-1" 554 837 basechar 0
AnchorPoint: "Anchor-0" 872 0 basechar 0
LayerCount: 2
Fore
SplineSet
461 -18 m 0,0,1
 326 -18 326 -18 233.5 59 c 128,-1,2
 141 136 141 136 141 254 c 2,3,-1
 141 835 l 1,4,-1
 301 835 l 1,5,-1
 301 276 l 2,6,7
 301 186 301 186 353 145 c 128,-1,8
 405 104 405 104 507 104 c 0,9,10
 630 104 630 104 742 189 c 0,11,12
 788 224 788 224 799 242 c 1,13,-1
 799 835 l 1,14,-1
 959 835 l 1,15,-1
 959 0 l 1,16,-1
 802 0 l 1,17,-1
 802 123 l 1,18,19
 732 58 732 58 691.5 38.5 c 0,20,21
 650 19 650 19 618 7 c 0,22,23
 550 -18 550 -18 461 -18 c 0,0,1
EndSplineSet
EndChar

StartChar: v
Encoding: 118 118 89
Width: 935
GlyphClass: 2
Flags: W
LayerCount: 2
Fore
SplineSet
473 -35 m 1,0,-1
 41 835 l 1,1,-1
 207 835 l 1,2,-1
 473 260 l 1,3,-1
 730 835 l 1,4,-1
 894 835 l 1,5,-1
 473 -35 l 1,0,-1
EndSplineSet
EndChar

StartChar: w
Encoding: 119 119 90
Width: 1280
GlyphClass: 2
Flags: W
AnchorPoint: "Anchor-1" 643 837 basechar 0
LayerCount: 2
Fore
SplineSet
376 -35 m 1,0,-1
 38 835 l 1,1,-1
 190 835 l 1,2,-1
 392 295 l 1,3,-1
 643 858 l 1,4,-1
 898 290 l 1,5,-1
 1092 835 l 1,6,-1
 1242 835 l 1,7,-1
 910 -35 l 1,8,-1
 645 581 l 1,9,-1
 376 -35 l 1,0,-1
EndSplineSet
EndChar

StartChar: x
Encoding: 120 120 91
Width: 1011
GlyphClass: 2
Flags: W
LayerCount: 2
Fore
SplineSet
48 0 m 1,0,-1
 410 430 l 1,1,-1
 50 835 l 1,2,-1
 225 835 l 1,3,-1
 501 513 l 1,4,-1
 763 835 l 1,5,-1
 953 835 l 1,6,-1
 600 419 l 1,7,-1
 963 0 l 1,8,-1
 791 0 l 1,9,-1
 507 337 l 1,10,-1
 235 0 l 1,11,-1
 48 0 l 1,0,-1
EndSplineSet
EndChar

StartChar: y
Encoding: 121 121 92
Width: 943
GlyphClass: 2
Flags: W
AnchorPoint: "Anchor-1" 465 836 basechar 0
LayerCount: 2
Fore
SplineSet
181 -244 m 1,0,-1
 412 210 l 1,1,-1
 23 835 l 1,2,-1
 197 835 l 1,3,-1
 495 338 l 1,4,-1
 752 835 l 1,5,-1
 919 835 l 1,6,-1
 351 -244 l 1,7,-1
 181 -244 l 1,0,-1
EndSplineSet
EndChar

StartChar: z
Encoding: 122 122 93
Width: 872
GlyphClass: 2
Flags: W
AnchorPoint: "Anchor-1" 465 835 basechar 0
AnchorPoint: "Anchor-0" 452 0 basechar 0
LayerCount: 2
Fore
SplineSet
89 0 m 1,0,-1
 566 714 l 1,1,-1
 129 714 l 1,2,-1
 129 835 l 1,3,-1
 800 835 l 1,4,-1
 337 122 l 1,5,-1
 771 122 l 1,6,-1
 771 0 l 1,7,-1
 89 0 l 1,0,-1
EndSplineSet
EndChar

StartChar: braceleft
Encoding: 123 123 94
Width: 605
GlyphClass: 2
Flags: W
LayerCount: 2
Fore
SplineSet
448 -46 m 2,0,1
 319 -46 319 -46 261 21 c 128,-1,2
 203 88 203 88 203 238 c 2,3,-1
 203 365 l 2,4,5
 203 481 203 481 168.5 526 c 128,-1,6
 134 571 134 571 62 572 c 1,7,-1
 62 656 l 1,8,9
 134 657 134 657 168.5 701.5 c 128,-1,10
 203 746 203 746 203 862 c 2,11,-1
 203 990 l 2,12,13
 203 1140 203 1140 261 1207 c 128,-1,14
 319 1274 319 1274 448 1274 c 2,15,-1
 534 1274 l 1,16,-1
 534 1188 l 1,17,-1
 465 1188 l 2,18,19
 388 1188 388 1188 355.5 1139.5 c 128,-1,20
 323 1091 323 1091 323 971 c 2,21,-1
 323 862 l 2,22,23
 323 740 323 740 291.5 687.5 c 128,-1,24
 260 635 260 635 196 613 c 1,25,26
 240 596 240 596 264 574 c 0,27,28
 324 522 324 522 323 365 c 2,29,-1
 323 256 l 2,30,31
 323 136 323 136 355.5 88 c 128,-1,32
 388 40 388 40 465 40 c 2,33,-1
 534 40 l 1,34,-1
 534 -46 l 1,35,-1
 448 -46 l 2,0,1
EndSplineSet
EndChar

StartChar: bar
Encoding: 124 124 95
Width: 465
GlyphClass: 2
Flags: W
LayerCount: 2
Fore
SplineSet
153 -134 m 1,0,-1
 153 1248 l 1,1,-1
 311 1248 l 1,2,-1
 311 -133 l 1,3,-1
 153 -134 l 1,0,-1
EndSplineSet
EndChar

StartChar: braceright
Encoding: 125 125 96
Width: 605
GlyphClass: 2
Flags: W
LayerCount: 2
Fore
SplineSet
72 -46 m 1,0,-1
 72 40 l 1,1,-1
 141 40 l 2,2,3
 218 40 218 40 250.5 88 c 128,-1,4
 283 136 283 136 283 256 c 2,5,-1
 283 365 l 2,6,7
 282 522 282 522 342 574 c 0,8,9
 366 596 366 596 410 613 c 1,10,11
 346 635 346 635 314.5 687.5 c 128,-1,12
 283 740 283 740 283 862 c 2,13,-1
 283 971 l 2,14,15
 283 1091 283 1091 250.5 1139.5 c 128,-1,16
 218 1188 218 1188 141 1188 c 2,17,-1
 72 1188 l 1,18,-1
 72 1274 l 1,19,-1
 158 1274 l 2,20,21
 287 1274 287 1274 345 1207 c 128,-1,22
 403 1140 403 1140 403 990 c 2,23,-1
 403 862 l 2,24,25
 403 746 403 746 437.5 701.5 c 128,-1,26
 472 657 472 657 544 656 c 1,27,-1
 544 572 l 1,28,29
 472 571 472 571 437.5 526 c 128,-1,30
 403 481 403 481 403 365 c 2,31,-1
 403 238 l 2,32,33
 403 88 403 88 345 21 c 128,-1,34
 287 -46 287 -46 158 -46 c 2,35,-1
 72 -46 l 1,0,-1
EndSplineSet
EndChar

StartChar: asciitilde
Encoding: 126 126 97
Width: 1016
GlyphClass: 2
Flags: W
LayerCount: 2
Fore
SplineSet
704 614 m 0,0,1
 644 614 644 614 503.5 673 c 128,-1,2
 363 732 363 732 329 732 c 0,3,4
 245 732 245 732 241 628 c 1,5,-1
 137 628 l 1,6,7
 138 743 138 743 189 796.5 c 128,-1,8
 240 850 240 850 308 850 c 0,9,10
 376 850 376 850 452 821 c 128,-1,11
 528 792 528 792 596 763.5 c 128,-1,12
 664 735 664 735 698 735 c 0,13,14
 732 735 732 735 753.5 762 c 128,-1,15
 775 789 775 789 777 836 c 1,16,-1
 881 836 l 1,17,18
 880 614 880 614 704 614 c 0,0,1
EndSplineSet
EndChar

StartChar: cent
Encoding: 162 162 99
Width: 875
GlyphClass: 2
Flags: W
LayerCount: 2
Fore
SplineSet
449 -11 m 1,0,-1
 410 -198 l 1,1,-1
 336 -198 l 1,2,-1
 378 5 l 1,3,4
 279 36 279 36 207 104 c 0,5,6
 79 226 79 226 79 418 c 0,7,8
 79 612 79 612 209.5 732.5 c 128,-1,9
 340 853 340 853 545 853 c 0,10,11
 549 853 549 853 552 853 c 1,12,-1
 586 1016 l 1,13,-1
 663 1016 l 1,14,-1
 628 848 l 1,15,16
 722 835 722 835 793 792 c 1,17,-1
 793 660 l 1,18,19
 716 713 716 713 602 723 c 1,20,-1
 475 115 l 1,21,22
 509 109 509 109 548 109 c 0,23,24
 671 109 671 109 793 177 c 1,25,-1
 793 46 l 1,26,27
 678 -18 678 -18 549 -18 c 0,28,29
 496 -18 496 -18 449 -11 c 1,0,-1
526 724 m 1,30,31
 393 717 393 717 312 633 c 0,32,33
 231 548 231 548 231 416 c 0,34,35
 230 284 230 284 312 197 c 0,36,37
 350 156 350 156 404 134 c 1,38,-1
 526 724 l 1,30,31
EndSplineSet
EndChar

StartChar: sterling
Encoding: 163 163 100
Width: 1001
GlyphClass: 2
Flags: W
LayerCount: 2
Fore
SplineSet
291 917 m 0,0,1
 291 857 291 857 351 677 c 1,2,-1
 631 677 l 1,3,-1
 631 560 l 1,4,-1
 388 560 l 1,5,6
 405 482 405 482 405 406 c 128,-1,7
 405 330 405 330 366 230 c 1,8,9
 407 176 407 176 475.5 142 c 128,-1,10
 544 108 544 108 619 108 c 128,-1,11
 694 108 694 108 740.5 152.5 c 128,-1,12
 787 197 787 197 787 276 c 1,13,-1
 932 276 l 1,14,15
 932 129 932 129 846 52.5 c 128,-1,16
 760 -24 760 -24 628 -24 c 0,17,18
 543 -24 543 -24 457.5 12.5 c 128,-1,19
 372 49 372 49 307 112 c 1,20,21
 275 53 275 53 236 0 c 1,22,-1
 67 0 l 1,23,24
 246 238 246 238 246 425 c 0,25,26
 246 485 246 485 228 560 c 1,27,-1
 84 560 l 1,28,-1
 84 677 l 1,29,-1
 192 677 l 1,30,31
 130 847 130 847 130 928 c 128,-1,32
 130 1009 130 1009 163 1078.5 c 128,-1,33
 196 1148 196 1148 252 1190 c 0,34,35
 365 1274 365 1274 514 1274 c 0,36,37
 612 1274 612 1274 697.5 1233 c 128,-1,38
 783 1192 783 1192 829 1142 c 1,39,-1
 753 1034 l 1,40,41
 649 1138 649 1138 525 1138 c 0,42,43
 433 1138 433 1138 362 1079.5 c 128,-1,44
 291 1021 291 1021 291 917 c 0,0,1
EndSplineSet
EndChar

StartChar: yen
Encoding: 165 165 102
Width: 1264
GlyphClass: 2
Flags: W
LayerCount: 2
Fore
SplineSet
557 0 m 1,0,-1
 557 420 l 1,1,-1
 279 420 l 1,2,-1
 279 528 l 1,3,-1
 526 528 l 1,4,-1
 459 647 l 1,5,-1
 245 647 l 1,6,-1
 245 756 l 1,7,-1
 397 756 l 1,8,-1
 122 1241 l 1,9,-1
 288 1241 l 1,10,-1
 641 616 l 1,11,-1
 970 1241 l 1,12,-1
 1142 1241 l 1,13,-1
 877 756 l 1,14,-1
 1024 756 l 1,15,-1
 1024 647 l 1,16,-1
 818 647 l 1,17,-1
 753 528 l 1,18,-1
 991 528 l 1,19,-1
 991 420 l 1,20,-1
 722 420 l 1,21,-1
 722 0 l 1,22,-1
 557 0 l 1,0,-1
EndSplineSet
EndChar

StartChar: brokenbar
Encoding: 166 166 103
Width: 465
GlyphClass: 2
Flags: W
LayerCount: 2
Fore
SplineSet
153 -133 m 1,0,-1
 153 418 l 1,1,-1
 311 418 l 1,2,-1
 311 -133 l 1,3,-1
 153 -133 l 1,0,-1
153 689 m 1,4,-1
 153 1248 l 1,5,-1
 311 1248 l 1,6,-1
 311 690 l 1,7,-1
 153 689 l 1,4,-1
EndSplineSet
EndChar

StartChar: section
Encoding: 167 167 104
Width: 877
GlyphClass: 2
Flags: W
LayerCount: 2
Fore
SplineSet
294 471 m 2,0,1
 148 550 148 550 148 675 c 128,-1,2
 148 800 148 800 290 853 c 1,3,4
 151 932 151 932 151 1054 c 0,5,6
 151 1144 151 1144 225 1208.5 c 128,-1,7
 299 1273 299 1273 435.5 1273 c 128,-1,8
 572 1273 572 1273 708 1208 c 1,9,-1
 677 1097 l 1,10,11
 675 1098 675 1098 655.5 1105.5 c 128,-1,12
 636 1113 636 1113 627 1116.5 c 128,-1,13
 618 1120 618 1120 597.5 1127 c 128,-1,14
 577 1134 577 1134 561.5 1138 c 128,-1,15
 546 1142 546 1142 526 1146 c 0,16,17
 487 1154 487 1154 431.5 1154.5 c 128,-1,18
 376 1155 376 1155 337 1128 c 128,-1,19
 298 1101 298 1101 298 1062 c 128,-1,20
 298 1023 298 1023 316 999.5 c 128,-1,21
 334 976 334 976 378 953 c 2,22,-1
 606 829 l 2,23,24
 746 753 746 753 746 629 c 0,25,26
 746 567 746 567 713 516.5 c 128,-1,27
 680 466 680 466 615 440 c 1,28,29
 743 364 743 364 743 248 c 0,30,31
 743 156 743 156 676 90.5 c 128,-1,32
 609 25 609 25 479 25 c 0,33,34
 396 25 396 25 316 45 c 0,35,36
 199 74 199 74 127 121 c 1,37,-1
 144 241 l 1,38,39
 201 205 201 205 301 175.5 c 128,-1,40
 401 146 401 146 464 146 c 128,-1,41
 527 146 527 146 561 173 c 128,-1,42
 595 200 595 200 595 239 c 128,-1,43
 595 278 595 278 576 303 c 128,-1,44
 557 328 557 328 511 352 c 1,45,-1
 294 471 l 2,0,1
500 504 m 1,46,47
 552 508 552 508 583.5 538 c 128,-1,48
 615 568 615 568 615 606.5 c 128,-1,49
 615 645 615 645 596 670.5 c 128,-1,50
 577 696 577 696 532 719 c 1,51,-1
 411 786 l 1,52,53
 350 782 350 782 315 754.5 c 128,-1,54
 280 727 280 727 280 689.5 c 128,-1,55
 280 652 280 652 298 629 c 128,-1,56
 316 606 316 606 360 582 c 2,57,-1
 500 504 l 1,46,47
EndSplineSet
EndChar

StartChar: dieresis
Encoding: 168 168 105
Width: 859
GlyphClass: 4
Flags: W
AnchorPoint: "Anchor-1" 402 0 mark 0
LayerCount: 2
Fore
SplineSet
684.5 141 m 128,-1,1
 657 111 657 111 610.5 111 c 128,-1,2
 564 111 564 111 536.5 141 c 128,-1,3
 509 171 509 171 509 211 c 128,-1,4
 509 251 509 251 536.5 281 c 128,-1,5
 564 311 564 311 610.5 311 c 128,-1,6
 657 311 657 311 684.5 280.5 c 128,-1,7
 712 250 712 250 712 210.5 c 128,-1,0
 712 171 712 171 684.5 141 c 128,-1,1
323.5 141 m 128,-1,9
 296 111 296 111 249.5 111 c 128,-1,10
 203 111 203 111 175.5 141 c 128,-1,11
 148 171 148 171 148 211 c 128,-1,12
 148 251 148 251 175.5 281 c 128,-1,13
 203 311 203 311 249.5 311 c 128,-1,14
 296 311 296 311 323.5 280.5 c 128,-1,15
 351 250 351 250 351 210.5 c 128,-1,8
 351 171 351 171 323.5 141 c 128,-1,9
EndSplineSet
EndChar

StartChar: copyright
Encoding: 169 169 106
Width: 1749
GlyphClass: 2
Flags: W
LayerCount: 2
Fore
SplineSet
689.5 24 m 128,-1,1
 778 1 778 1 872 1 c 128,-1,2
 966 1 966 1 1053.5 24 c 128,-1,3
 1141 47 1141 47 1221 97 c 128,-1,4
 1301 147 1301 147 1361 218 c 0,5,6
 1492 373 1492 373 1492 619 c 0,7,8
 1492 978 1492 978 1231 1143 c 0,9,10
 1079 1239 1079 1239 874 1239 c 0,11,12
 670 1239 670 1239 517 1141 c 0,13,14
 354 1036 354 1036 292 844 c 0,15,16
 259 742 259 742 259 618.5 c 128,-1,17
 259 495 259 495 293 392 c 128,-1,18
 327 289 327 289 385.5 217.5 c 128,-1,19
 444 146 444 146 522.5 96.5 c 128,-1,0
 601 47 601 47 689.5 24 c 128,-1,1
875 -99 m 0,20,21
 762 -99 762 -99 656 -71 c 128,-1,22
 550 -43 550 -43 456.5 16 c 0,23,24
 363 74 363 74 293 158 c 0,25,26
 142 338 142 338 142 619 c 0,27,28
 142 1026 142 1026 456 1224 c 0,29,30
 638 1339 638 1339 874 1339 c 128,-1,31
 1110 1339 1110 1339 1292 1224 c 0,32,33
 1608 1025 1608 1025 1608 623 c 0,34,35
 1608 214 1608 214 1293 16 c 0,36,37
 1110 -99 1110 -99 875 -99 c 0,20,21
885 138 m 0,38,39
 674 138 674 138 530.5 273.5 c 128,-1,40
 387 409 387 409 387 625.5 c 128,-1,41
 387 842 387 842 530.5 976 c 128,-1,42
 674 1110 674 1110 897 1110 c 0,43,44
 1058 1110 1058 1110 1205 1023 c 1,45,-1
 1205 903 l 1,46,47
 1062 998 1062 998 902.5 998 c 128,-1,48
 743 998 743 998 634 898 c 128,-1,49
 525 798 525 798 525 620 c 128,-1,50
 525 442 525 442 630 346 c 128,-1,51
 735 250 735 250 897 250 c 128,-1,52
 1059 250 1059 250 1205 348 c 1,53,-1
 1205 224 l 1,54,55
 1049 138 1049 138 885 138 c 0,38,39
EndSplineSet
EndChar

StartChar: guillemotleft
Encoding: 171 171 108
Width: 819
GlyphClass: 2
Flags: W
LayerCount: 2
Fore
SplineSet
750 215 m 0,0,1
 750 189 750 189 721 189 c 0,2,3
 709 189 709 189 698 194 c 1,4,-1
 433 414 l 1,5,6
 376 452 376 452 376 503.5 c 128,-1,7
 376 555 376 555 433 592 c 1,8,-1
 698 813 l 1,9,10
 709 818 709 818 721 818 c 0,11,12
 750 818 750 818 750 792 c 0,13,14
 750 781 750 781 733 762 c 1,15,-1
 555 503 l 1,16,-1
 733 245 l 1,17,18
 750 225 750 225 750 215 c 0,0,1
442 215 m 0,19,20
 442 189 442 189 413 189 c 0,21,22
 401 189 401 189 390 194 c 1,23,-1
 125 414 l 1,24,25
 69 451 69 451 69 503.5 c 128,-1,26
 69 556 69 556 125 592 c 1,27,-1
 390 813 l 1,28,29
 401 818 401 818 413 818 c 0,30,31
 442 818 442 818 442 792 c 0,32,33
 442 780 442 780 426 762 c 1,34,-1
 247 503 l 1,35,-1
 426 245 l 1,36,37
 442 226 442 226 442 215 c 0,19,20
EndSplineSet
EndChar

StartChar: logicalnot
Encoding: 172 172 109
Width: 932
GlyphClass: 2
Flags: W
LayerCount: 2
Fore
SplineSet
666 425 m 1,0,-1
 666 710 l 1,1,-1
 149 710 l 1,2,-1
 149 824 l 1,3,-1
 780 824 l 1,4,-1
 780 425 l 1,5,-1
 666 425 l 1,0,-1
EndSplineSet
EndChar

StartChar: uni00AD
Encoding: 173 173 110
Width: 938
GlyphClass: 2
Flags: W
LayerCount: 2
Fore
SplineSet
153 710 m 1,0,-1
 153 824 l 1,1,-1
 785 824 l 1,2,-1
 784 710 l 1,3,-1
 153 710 l 1,0,-1
EndSplineSet
EndChar

StartChar: registered
Encoding: 174 174 111
Width: 1757
GlyphClass: 2
Flags: W
LayerCount: 2
Fore
SplineSet
579 161 m 1,0,-1
 579 1076 l 1,1,-1
 807 1076 l 2,2,3
 979 1076 979 1076 1076.5 1015 c 128,-1,4
 1174 954 1174 954 1174 828 c 0,5,6
 1174 601 1174 601 867 581 c 1,7,-1
 1226 161 l 1,8,-1
 1069 161 l 1,9,-1
 730 573 l 1,10,-1
 704 573 l 1,11,-1
 704 161 l 1,12,-1
 579 161 l 1,0,-1
704 663 m 1,13,-1
 777 663 l 2,14,15
 981 663 981 663 1029 743 c 0,16,17
 1049 776 1049 776 1049 824 c 0,18,19
 1049 905 1049 905 991.5 942.5 c 128,-1,20
 934 980 934 980 803 980 c 2,21,-1
 704 980 l 1,22,-1
 704 663 l 1,13,-1
693.5 22.5 m 128,-1,24
 782 -1 782 -1 876 -1 c 128,-1,25
 970 -1 970 -1 1057.5 22.5 c 128,-1,26
 1145 46 1145 46 1225 96 c 128,-1,27
 1305 146 1305 146 1365 218 c 0,28,29
 1496 374 1496 374 1496 619 c 0,30,31
 1496 978 1496 978 1236 1144 c 0,32,33
 1084 1241 1084 1241 878 1241 c 0,34,35
 673 1240 673 1240 521 1142 c 0,36,37
 358 1036 358 1036 296 844 c 0,38,39
 263 742 263 742 263 618.5 c 128,-1,40
 263 495 263 495 297 392 c 128,-1,41
 331 289 331 289 389.5 217 c 128,-1,42
 448 145 448 145 526.5 95.5 c 128,-1,23
 605 46 605 46 693.5 22.5 c 128,-1,24
879 -99 m 128,-1,44
 766 -99 766 -99 660 -71 c 128,-1,45
 554 -43 554 -43 459.5 16 c 0,46,47
 364 74 364 74 294 158 c 0,48,49
 142 339 142 339 142 619 c 0,50,51
 142 1025 142 1025 459 1224 c 0,52,53
 642 1339 642 1339 878 1339 c 128,-1,54
 1114 1339 1114 1339 1298 1224 c 0,55,56
 1499 1098 1499 1098 1575 880 c 0,57,58
 1616 762 1616 762 1616 622 c 128,-1,59
 1616 482 1616 482 1575 362.5 c 128,-1,60
 1534 243 1534 243 1463.5 159 c 128,-1,61
 1393 75 1393 75 1298.5 16 c 128,-1,62
 1204 -43 1204 -43 1098 -71 c 128,-1,43
 992 -99 992 -99 879 -99 c 128,-1,44
EndSplineSet
EndChar

StartChar: degree
Encoding: 176 176 113
Width: 735
GlyphClass: 2
Flags: W
LayerCount: 2
Fore
SplineSet
523.5 1074.5 m 128,-1,1
 458 1017 458 1017 366.5 1017 c 128,-1,2
 275 1017 275 1017 210 1074 c 128,-1,3
 145 1131 145 1131 145 1229 c 128,-1,4
 145 1327 145 1327 210.5 1385.5 c 128,-1,5
 276 1444 276 1444 365 1444 c 128,-1,6
 454 1444 454 1444 521.5 1385 c 128,-1,7
 589 1326 589 1326 589 1229 c 128,-1,0
 589 1132 589 1132 523.5 1074.5 c 128,-1,1
268.5 1133 m 128,-1,9
 303 1095 303 1095 365.5 1095 c 128,-1,10
 428 1095 428 1095 463 1134.5 c 128,-1,11
 498 1174 498 1174 498 1228.5 c 128,-1,12
 498 1283 498 1283 462.5 1323.5 c 128,-1,13
 427 1364 427 1364 366 1364 c 128,-1,14
 305 1364 305 1364 269.5 1323.5 c 128,-1,15
 234 1283 234 1283 234 1227 c 128,-1,8
 234 1171 234 1171 268.5 1133 c 128,-1,9
EndSplineSet
EndChar

StartChar: plusminus
Encoding: 177 177 114
Width: 947
GlyphClass: 2
Flags: W
LayerCount: 2
Fore
SplineSet
418 380 m 1,0,-1
 418 647 l 1,1,-1
 151 647 l 1,2,-1
 151 756 l 1,3,-1
 418 756 l 1,4,-1
 418 1024 l 1,5,-1
 527 1024 l 1,6,-1
 527 756 l 1,7,-1
 795 756 l 1,8,-1
 795 647 l 1,9,-1
 527 647 l 1,10,-1
 527 380 l 1,11,-1
 418 380 l 1,0,-1
151 127 m 1,12,-1
 151 235 l 1,13,-1
 795 235 l 1,14,-1
 795 127 l 1,15,-1
 151 127 l 1,12,-1
EndSplineSet
EndChar

StartChar: acute
Encoding: 180 180 117
Width: 460
GlyphClass: 4
Flags: W
AnchorPoint: "Anchor-1" 88 0 mark 0
LayerCount: 2
Fore
SplineSet
94 111 m 0,0,1
 72 111 72 111 72 135 c 0,2,3
 72 141 72 141 77 153 c 1,4,-1
 242 475 l 2,5,6
 269 528 269 528 306 528 c 128,-1,7
 343 528 343 528 365 508 c 128,-1,8
 387 488 387 488 387 460.5 c 128,-1,9
 387 433 387 433 363 406 c 2,10,-1
 119 124 l 2,11,12
 107 111 107 111 94 111 c 0,0,1
EndSplineSet
EndChar

StartChar: uni00B5
Encoding: 181 181 118
Width: 1124
GlyphClass: 2
Flags: W
LayerCount: 2
Fore
SplineSet
313 16 m 1,0,-1
 313 -248 l 1,1,-1
 153 -248 l 1,2,-1
 153 835 l 1,3,-1
 313 835 l 1,4,-1
 313 276 l 2,5,6
 313 186 313 186 365 145 c 128,-1,7
 417 104 417 104 519 104 c 0,8,9
 642 104 642 104 754 189 c 0,10,11
 800 224 800 224 811 242 c 1,12,-1
 811 835 l 1,13,-1
 971 835 l 1,14,-1
 971 0 l 1,15,-1
 814 0 l 1,16,-1
 814 123 l 1,17,18
 744 58 744 58 703.5 38.5 c 0,19,20
 662 19 662 19 630 7 c 0,21,22
 562 -18 562 -18 473 -18 c 128,-1,23
 384 -18 384 -18 313 16 c 1,0,-1
EndSplineSet
EndChar

StartChar: paragraph
Encoding: 182 182 119
Width: 1055
GlyphClass: 2
Flags: W
LayerCount: 2
Fore
SplineSet
544 0 m 1,0,-1
 544 625 l 1,1,-1
 515 625 l 1,2,3
 242 632 242 632 169 788 c 0,4,5
 139 852 139 852 139 935.5 c 128,-1,6
 139 1019 139 1019 162 1073 c 128,-1,7
 185 1127 185 1127 224 1159 c 0,8,9
 264 1192 264 1192 326 1210 c 0,10,11
 432 1242 432 1242 609 1241 c 2,12,-1
 906 1241 l 1,13,-1
 906 0 l 1,14,-1
 773 0 l 1,15,-1
 773 1135 l 1,16,-1
 677 1135 l 1,17,-1
 677 0 l 1,18,-1
 544 0 l 1,0,-1
EndSplineSet
EndChar

StartChar: cedilla
Encoding: 184 184 121
Width: 451
GlyphClass: 4
Flags: W
AnchorPoint: "Anchor-0" 274 0 mark 0
LayerCount: 2
Fore
SplineSet
112 -196 m 0,0,1
 112 -110 112 -110 248 -71 c 1,2,-1
 248 0 l 1,3,-1
 313 0 l 1,4,-1
 313 -113 l 1,5,6
 216 -125 216 -125 216 -181 c 0,7,8
 216 -217 216 -217 254.5 -253.5 c 128,-1,9
 293 -290 293 -290 344 -304 c 1,10,-1
 334 -357 l 1,11,12
 249 -357 249 -357 180.5 -306.5 c 128,-1,13
 112 -256 112 -256 112 -196 c 0,0,1
EndSplineSet
EndChar

StartChar: onehalf
Encoding: 189 189 125
Width: 1573
GlyphClass: 2
Flags: W
LayerCount: 2
Fore
SplineSet
210 0 m 1,0,-1
 1096 1241 l 1,1,-1
 1215 1241 l 1,2,-1
 328 0 l 1,3,-1
 210 0 l 1,0,-1
233 426 m 1,4,-1
 233 1105 l 1,5,6
 159 1059 159 1059 66 1031 c 1,7,-1
 66 1123 l 1,8,9
 173 1166 173 1166 300 1246 c 1,10,-1
 343 1274 l 1,11,-1
 343 426 l 1,12,-1
 233 426 l 1,4,-1
989 1 m 1,13,-1
 1292 406 l 2,14,15
 1343 473 1343 473 1366.5 520 c 128,-1,16
 1390 567 1390 567 1390 628 c 128,-1,17
 1390 689 1390 689 1350.5 725.5 c 128,-1,18
 1311 762 1311 762 1255 762 c 128,-1,19
 1199 762 1199 762 1144 738 c 128,-1,20
 1089 714 1089 714 1063 691 c 1,21,-1
 1024 775 l 1,22,23
 1054 802 1054 802 1122 828.5 c 128,-1,24
 1190 855 1190 855 1257 855 c 0,25,26
 1365 855 1365 855 1432 788.5 c 128,-1,27
 1499 722 1499 722 1499 614 c 0,28,29
 1499 545 1499 545 1467 483.5 c 128,-1,30
 1435 422 1435 422 1369 335 c 1,31,-1
 1181 92 l 1,32,-1
 1503 92 l 1,33,-1
 1503 1 l 1,34,-1
 989 1 l 1,13,-1
EndSplineSet
EndChar

StartChar: onequarter
Encoding: 188 188 126
Width: 1513
GlyphClass: 2
Flags: W
LayerCount: 2
Fore
SplineSet
213 0 m 1,0,-1
 1099 1241 l 1,1,-1
 1218 1241 l 1,2,-1
 331 0 l 1,3,-1
 213 0 l 1,0,-1
236 426 m 1,4,-1
 236 1105 l 1,5,6
 162 1059 162 1059 69 1031 c 1,7,-1
 69 1123 l 1,8,9
 176 1166 176 1166 303 1246 c 1,10,-1
 346 1274 l 1,11,-1
 346 426 l 1,12,-1
 236 426 l 1,4,-1
1208 1 m 1,13,-1
 1208 173 l 1,14,-1
 802 173 l 1,15,-1
 1320 867 l 1,16,-1
 1320 260 l 1,17,-1
 1449 260 l 1,18,-1
 1449 173 l 1,19,-1
 1320 173 l 1,20,-1
 1320 1 l 1,21,-1
 1208 1 l 1,13,-1
976 260 m 1,22,-1
 1208 260 l 1,23,-1
 1208 588 l 1,24,-1
 976 260 l 1,22,-1
EndSplineSet
EndChar

StartChar: threequarters
Encoding: 190 190 127
Width: 1679
GlyphClass: 2
Flags: W
LayerCount: 2
Fore
SplineSet
384 0 m 1,0,-1
 1270 1241 l 1,1,-1
 1389 1241 l 1,2,-1
 502 0 l 1,3,-1
 384 0 l 1,0,-1
70 1219 m 1,4,5
 160 1278 160 1278 288 1278 c 0,6,7
 428 1278 428 1278 494 1182 c 0,8,9
 528 1132 528 1132 528.5 1062 c 128,-1,10
 529 992 529 992 480.5 941.5 c 128,-1,11
 432 891 432 891 361 868 c 1,12,13
 442 838 442 838 495 776.5 c 128,-1,14
 548 715 548 715 548 621 c 128,-1,15
 548 527 548 527 477 464 c 128,-1,16
 406 401 406 401 282 401 c 0,17,18
 228 401 228 401 168 417.5 c 128,-1,19
 108 434 108 434 72 456 c 1,20,-1
 96 539 l 1,21,22
 188 491 188 491 269 491 c 128,-1,23
 350 491 350 491 396 530 c 128,-1,24
 442 569 442 569 442 639 c 128,-1,25
 442 709 442 709 384.5 759.5 c 128,-1,26
 327 810 327 810 194 844 c 1,27,-1
 194 881 l 1,28,29
 427 939 427 939 427 1060 c 0,30,31
 427 1123 427 1123 383.5 1156.5 c 128,-1,32
 340 1190 340 1190 262.5 1190 c 128,-1,33
 185 1190 185 1190 101 1139 c 1,34,-1
 70 1219 l 1,4,5
1375 1 m 1,35,-1
 1375 173 l 1,36,-1
 969 173 l 1,37,-1
 1487 867 l 1,38,-1
 1487 260 l 1,39,-1
 1616 260 l 1,40,-1
 1616 173 l 1,41,-1
 1487 173 l 1,42,-1
 1487 1 l 1,43,-1
 1375 1 l 1,35,-1
1143 260 m 1,44,-1
 1375 260 l 1,45,-1
 1375 588 l 1,46,-1
 1143 260 l 1,44,-1
EndSplineSet
EndChar

StartChar: questiondown
Encoding: 191 191 128
Width: 925
GlyphClass: 2
Flags: W
LayerCount: 2
Fore
SplineSet
557 826 m 128,-1,1
 585 857 585 857 633.5 857 c 128,-1,2
 682 857 682 857 710.5 826 c 128,-1,3
 739 795 739 795 739 753.5 c 128,-1,4
 739 712 739 712 710.5 680.5 c 128,-1,5
 682 649 682 649 634 649 c 128,-1,6
 586 649 586 649 557.5 680.5 c 128,-1,7
 529 712 529 712 529 753.5 c 128,-1,0
 529 795 529 795 557 826 c 128,-1,1
489 -296 m 0,8,9
 631 -296 631 -296 761 -200 c 1,10,-1
 822 -317 l 1,11,12
 777 -357 777 -357 676.5 -395.5 c 128,-1,13
 576 -434 576 -434 476 -434 c 0,14,15
 318 -434 318 -434 216.5 -347.5 c 128,-1,16
 115 -261 115 -261 115 -107 c 0,17,18
 115 12 115 12 197 118.5 c 128,-1,19
 279 225 279 225 509 447 c 0,20,21
 531 468 531 468 542 479 c 1,22,-1
 674 479 l 1,23,24
 420 196 420 196 349.5 95.5 c 128,-1,25
 279 -5 279 -5 279 -100 c 128,-1,26
 279 -195 279 -195 340 -245.5 c 128,-1,27
 401 -296 401 -296 489 -296 c 0,8,9
EndSplineSet
EndChar

StartChar: AE
Encoding: 198 198 135
Width: 1470
GlyphClass: 2
Flags: W
LayerCount: 2
Fore
SplineSet
111 0 m 1,0,-1
 675 1242 l 1,1,-1
 675 1241 l 1,2,-1
 1395 1241 l 1,3,-1
 1395 1104 l 1,4,-1
 837 1104 l 1,5,-1
 837 708 l 1,6,-1
 1332 708 l 1,7,-1
 1332 572 l 1,8,-1
 835 572 l 1,9,-1
 835 139 l 1,10,-1
 1405 139 l 1,11,-1
 1405 0 l 1,12,-1
 675 0 l 1,13,-1
 675 297 l 1,14,-1
 411 297 l 1,15,-1
 280 0 l 1,16,-1
 111 0 l 1,0,-1
675 939 m 1,17,-1
 453 409 l 1,18,-1
 675 409 l 1,19,-1
 675 939 l 1,17,-1
EndSplineSet
EndChar

StartChar: Eth
Encoding: 208 208 145
Width: 1399
GlyphClass: 2
Flags: W
LayerCount: 2
Fore
SplineSet
318 131 m 1,0,-1
 624 131 l 2,1,2
 856 131 856 131 995 268.5 c 128,-1,3
 1134 406 1134 406 1134 635.5 c 128,-1,4
 1134 865 1134 865 1011 987.5 c 128,-1,5
 888 1110 888 1110 672 1110 c 2,6,-1
 318 1110 l 1,7,-1
 318 714 l 1,8,-1
 643 714 l 1,9,-1
 643 606 l 1,10,-1
 318 606 l 1,11,-1
 318 131 l 1,0,-1
-1 606 m 1,12,-1
 -1 714 l 1,13,-1
 156 714 l 1,14,-1
 156 1241 l 1,15,-1
 675 1241 l 2,16,17
 976 1241 976 1241 1138 1074 c 128,-1,18
 1300 907 1300 907 1300 628 c 0,19,20
 1300 422 1300 422 1191 264 c 0,21,22
 1076 98 1076 98 876 34 c 0,23,24
 770 0 770 0 645 0 c 2,25,-1
 156 0 l 1,26,-1
 156 606 l 1,27,-1
 -1 606 l 1,12,-1
EndSplineSet
EndChar

StartChar: multiply
Encoding: 215 215 152
Width: 761
GlyphClass: 2
Flags: W
LayerCount: 2
Fore
SplineSet
219 355 m 1,0,-1
 139 436 l 1,1,-1
 299 596 l 1,2,-1
 138 758 l 1,3,-1
 219 838 l 1,4,-1
 380 677 l 1,5,-1
 541 838 l 1,6,-1
 622 758 l 1,7,-1
 461 596 l 1,8,-1
 621 436 l 1,9,-1
 541 355 l 1,10,-1
 380 516 l 1,11,-1
 219 355 l 1,0,-1
EndSplineSet
EndChar

StartChar: Oslash
Encoding: 216 216 153
Width: 1533
GlyphClass: 2
Flags: W
LayerCount: 2
Fore
SplineSet
533 154 m 1,0,1
 639 104 639 104 746.5 104 c 128,-1,2
 854 104 854 104 941.5 136 c 128,-1,3
 1029 168 1029 168 1101.5 229.5 c 128,-1,4
 1174 291 1174 291 1218 392 c 128,-1,5
 1262 493 1262 493 1262 619.5 c 128,-1,6
 1262 746 1262 746 1221 847 c 0,7,8
 1176 957 1176 957 1092 1025 c 1,9,-1
 533 154 l 1,0,1
1097 1194 m 1,10,-1
 1179 1322 l 1,11,-1
 1254 1276 l 1,12,-1
 1172 1149 l 1,13,14
 1305 1057 1305 1057 1367 918.5 c 128,-1,15
 1429 780 1429 780 1429 622 c 128,-1,16
 1429 464 1429 464 1372.5 336 c 128,-1,17
 1316 208 1316 208 1222 128 c 0,18,19
 1029 -34 1029 -34 762 -34 c 1,20,21
 593 -34 593 -34 454 31 c 1,22,-1
 377 -88 l 1,23,-1
 302 -41 l 1,24,-1
 376 74 l 1,25,26
 201 186 201 186 134 384 c 0,27,28
 97 492 97 492 97 619.5 c 128,-1,29
 97 747 97 747 134 855.5 c 128,-1,30
 171 964 171 964 234 1040 c 128,-1,31
 297 1116 297 1116 382 1170 c 0,32,33
 548 1274 548 1274 745 1274 c 128,-1,34
 942 1274 942 1274 1097 1194 c 1,10,-1
1019 1074 m 1,35,36
 903 1137 903 1137 782 1137 c 128,-1,37
 661 1137 661 1137 572 1104.5 c 0,38,39
 484 1072 484 1072 414 1010 c 0,40,41
 264 877 264 877 264 619 c 0,42,43
 264 492 264 492 306 392 c 0,44,45
 356 271 356 271 456 199 c 1,46,-1
 1019 1074 l 1,35,36
EndSplineSet
EndChar

StartChar: Thorn
Encoding: 222 222 159
Width: 1063
GlyphClass: 2
Flags: W
LayerCount: 2
Fore
SplineSet
201 0 m 1,0,-1
 201 1241 l 1,1,-1
 364 1241 l 1,2,-1
 364 1012 l 1,3,-1
 531 1012 l 2,4,5
 759 1012 759 1012 882 922.5 c 128,-1,6
 1005 833 1005 833 1005 653 c 0,7,8
 1005 410 1005 410 799 332 c 0,9,10
 686 290 686 290 518 290 c 2,11,-1
 365 290 l 1,12,-1
 365 0 l 1,13,-1
 201 0 l 1,0,-1
364 403 m 1,14,-1
 533 403 l 2,15,16
 845 403 845 403 845 647 c 128,-1,17
 845 891 845 891 525 891 c 2,18,-1
 364 891 l 1,19,-1
 364 403 l 1,14,-1
EndSplineSet
EndChar

StartChar: germandbls
Encoding: 223 223 160
Width: 1103
GlyphClass: 2
Flags: W
LayerCount: 2
Fore
SplineSet
419 152 m 1,0,1
 547 97 547 97 654 97 c 0,2,3
 873 97 873 97 873 281 c 0,4,5
 873 361 873 361 839.5 414.5 c 128,-1,6
 806 468 806 468 707 521 c 1,7,-1
 490 631 l 1,8,-1
 490 735 l 1,9,10
 674 736 674 736 724 828 c 0,11,12
 746 868 746 868 746 942.5 c 128,-1,13
 746 1017 746 1017 689.5 1069 c 128,-1,14
 633 1121 633 1121 530 1121 c 128,-1,15
 427 1121 427 1121 372 1066 c 128,-1,16
 317 1011 317 1011 317 931 c 2,17,-1
 317 0 l 1,18,-1
 154 0 l 1,19,-1
 154 926 l 2,20,21
 154 1057 154 1057 251.5 1149 c 128,-1,22
 349 1241 349 1241 516.5 1241 c 128,-1,23
 684 1241 684 1241 786 1157.5 c 128,-1,24
 888 1074 888 1074 888 928 c 0,25,26
 888 852 888 852 857 797 c 0,27,28
 800 697 800 697 676 671 c 1,29,30
 878 580 878 580 950 495 c 0,31,32
 997 440 997 440 1008 398 c 0,33,34
 1022 340 1022 340 1022 269 c 128,-1,35
 1022 198 1022 198 995 135.5 c 0,36,37
 968 72 968 72 918 36 c 0,38,39
 822 -34 822 -34 668 -34 c 1,40,41
 606 -34 606 -34 543.5 -20 c 128,-1,42
 481 -6 481 -6 450 8 c 2,43,-1
 419 21 l 1,44,-1
 419 152 l 1,0,1
EndSplineSet
EndChar

StartChar: ae
Encoding: 230 230 167
Width: 1514
GlyphClass: 2
Flags: W
LayerCount: 2
Fore
SplineSet
444 853 m 0,0,1
 620 853 620 853 693 704 c 1,2,3
 741 775 741 775 815 814 c 128,-1,4
 889 853 889 853 979 853 c 128,-1,5
 1069 853 1069 853 1139.5 818 c 128,-1,6
 1210 783 1210 783 1250 721 c 0,7,8
 1328 601 1328 601 1329 419 c 2,9,-1
 1329 388 l 1,10,-1
 751 388 l 1,11,12
 777 105 777 105 1043 105 c 0,13,14
 1095 105 1095 105 1119 110 c 128,-1,15
 1143 115 1143 115 1156.5 117.5 c 128,-1,16
 1170 120 1170 120 1187.5 127 c 128,-1,17
 1205 134 1205 134 1213 136.5 c 128,-1,18
 1221 139 1221 139 1238.5 148.5 c 128,-1,19
 1256 158 1256 158 1260 160 c 128,-1,20
 1264 162 1264 162 1282 173 c 128,-1,21
 1300 184 1300 184 1302 185 c 1,22,-1
 1302 57 l 1,23,24
 1237 19 1237 19 1181 1 c 128,-1,25
 1125 -17 1125 -17 1040 -17 c 0,26,27
 807 -17 807 -17 690 133 c 1,28,29
 531 -18 531 -18 365 -18 c 0,30,31
 261 -18 261 -18 190.5 42.5 c 128,-1,32
 120 103 120 103 120 201 c 0,33,34
 120 304 120 304 202 373 c 0,35,36
 277 436 277 436 435 471 c 1,37,-1
 599 506 l 1,38,-1
 599 546 l 2,39,40
 599 672 599 672 515 710 c 0,41,42
 475 728 475 728 396.5 728 c 128,-1,43
 318 728 318 728 169 652 c 1,44,-1
 125 767 l 1,45,46
 198 811 198 811 286.5 832 c 128,-1,47
 375 853 375 853 444 853 c 0,0,1
309 129 m 128,-1,49
 341 95 341 95 397.5 95 c 128,-1,50
 454 95 454 95 524 130 c 128,-1,51
 594 165 594 165 643 207 c 1,52,53
 602 299 602 299 600 418 c 1,54,55
 598 416 598 416 556 406 c 0,56,57
 432 375 432 375 430 374 c 1,58,59
 341 348 341 348 309 307.5 c 128,-1,60
 277 267 277 267 277 215 c 128,-1,48
 277 163 277 163 309 129 c 128,-1,49
760 493 m 1,61,-1
 1196 493 l 1,62,63
 1189 600 1189 600 1139 667 c 128,-1,64
 1089 734 1089 734 992 734 c 0,65,66
 898 734 898 734 849 687 c 0,67,68
 799 639 799 639 785 597 c 0,69,70
 768 542 768 542 760 493 c 1,61,-1
EndSplineSet
EndChar

StartChar: eth
Encoding: 240 240 177
Width: 995
GlyphClass: 2
Flags: W
LayerCount: 2
Fore
SplineSet
300 187 m 128,-1,1
 380 106 380 106 497 106 c 128,-1,2
 614 106 614 106 685 184 c 128,-1,3
 756 262 756 262 756 374.5 c 128,-1,4
 756 487 756 487 684.5 569.5 c 128,-1,5
 613 652 613 652 494 652 c 128,-1,6
 375 652 375 652 297.5 573 c 128,-1,7
 220 494 220 494 220 381 c 128,-1,0
 220 268 220 268 300 187 c 128,-1,1
279 878 m 1,8,-1
 228 942 l 1,9,-1
 385 1050 l 1,10,-1
 236 1241 l 1,11,-1
 404 1241 l 1,12,13
 444 1193 444 1193 497 1128 c 1,14,-1
 680 1254 l 1,15,-1
 731 1190 l 1,16,-1
 549 1064 l 1,17,18
 686 894 686 894 756.5 792 c 128,-1,19
 827 690 827 690 868.5 596 c 128,-1,20
 910 502 910 502 910 387 c 0,21,22
 910 215 910 215 792 98.5 c 128,-1,23
 674 -18 674 -18 494 -18 c 128,-1,24
 314 -18 314 -18 193 96 c 128,-1,25
 72 210 72 210 72 381 c 0,26,27
 72 493 72 493 129 585 c 128,-1,28
 186 677 186 677 274.5 726.5 c 128,-1,29
 363 776 363 776 464 776 c 128,-1,30
 565 776 565 776 632 732 c 1,31,-1
 435 986 l 1,32,-1
 279 878 l 1,8,-1
EndSplineSet
EndChar

StartChar: oslash
Encoding: 248 248 185
Width: 1146
GlyphClass: 2
Flags: W
LayerCount: 2
Fore
SplineSet
414 134 m 1,0,1
 475 106 475 106 564.5 106 c 128,-1,2
 654 106 654 106 725 152 c 0,3,4
 863 240 863 240 863 415 c 0,5,6
 863 555 863 555 767 650 c 1,7,-1
 414 134 l 1,0,1
558 853 m 128,-1,9
 681 853 681 853 786 797 c 1,10,-1
 867 916 l 1,11,-1
 923 877 l 1,12,-1
 843 761 l 1,13,14
 902 716 902 716 946 649 c 0,15,16
 1012 547 1012 547 1012 415.5 c 128,-1,17
 1012 284 1012 284 948 183.5 c 128,-1,18
 884 83 884 83 781 32.5 c 128,-1,19
 678 -18 678 -18 558.5 -18 c 128,-1,20
 439 -18 439 -18 341 28 c 1,21,-1
 267 -80 l 1,22,-1
 211 -41 l 1,23,-1
 282 62 l 1,24,25
 214 109 214 109 158 196.5 c 128,-1,26
 102 284 102 284 102 416 c 128,-1,27
 102 548 102 548 166 649.5 c 128,-1,28
 230 751 230 751 332.5 802 c 128,-1,8
 435 853 435 853 558 853 c 128,-1,9
713 691 m 1,29,30
 647 729 647 729 557 729 c 0,31,32
 416 729 416 729 334 635.5 c 128,-1,33
 252 542 252 542 252 412 c 0,34,35
 252 259 252 259 356 171 c 1,36,-1
 713 691 l 1,29,30
EndSplineSet
EndChar

StartChar: thorn
Encoding: 254 254 191
Width: 1078
GlyphClass: 2
Flags: W
LayerCount: 2
Fore
SplineSet
156 -406 m 1,0,-1
 156 1241 l 1,1,-1
 315 1241 l 1,2,-1
 315 763 l 1,3,4
 418 853 418 853 586.5 853 c 128,-1,5
 755 853 755 853 865 729.5 c 128,-1,6
 975 606 975 606 975 417 c 128,-1,7
 975 228 975 228 863 106.5 c 128,-1,8
 751 -15 751 -15 558 -15 c 0,9,10
 422 -15 422 -15 342 19 c 1,11,-1
 315 30 l 1,12,-1
 315 -389 l 1,13,-1
 156 -406 l 1,0,-1
315 142 m 1,14,15
 439 104 439 104 530 104 c 0,16,17
 675 104 675 104 747 192.5 c 128,-1,18
 819 281 819 281 819 424.5 c 128,-1,19
 819 568 819 568 745.5 649 c 128,-1,20
 672 730 672 730 539 730 c 0,21,22
 490 730 490 730 436 711 c 0,23,24
 359 684 359 684 315 648 c 1,25,-1
 315 142 l 1,14,15
EndSplineSet
EndChar

StartChar: Dcroat
Encoding: 272 272 209
Width: 1399
GlyphClass: 2
Flags: W
LayerCount: 2
Fore
SplineSet
318 131 m 1,0,-1
 624 131 l 2,1,2
 856 131 856 131 995 268.5 c 128,-1,3
 1134 406 1134 406 1134 635.5 c 128,-1,4
 1134 865 1134 865 1011 987.5 c 128,-1,5
 888 1110 888 1110 672 1110 c 2,6,-1
 318 1110 l 1,7,-1
 318 714 l 1,8,-1
 643 714 l 1,9,-1
 643 606 l 1,10,-1
 318 606 l 1,11,-1
 318 131 l 1,0,-1
-1 606 m 1,12,-1
 -1 714 l 1,13,-1
 156 714 l 1,14,-1
 156 1241 l 1,15,-1
 675 1241 l 2,16,17
 976 1241 976 1241 1138 1074 c 128,-1,18
 1300 907 1300 907 1300 628 c 0,19,20
 1300 422 1300 422 1191 264 c 0,21,22
 1076 98 1076 98 876 34 c 0,23,24
 770 0 770 0 645 0 c 2,25,-1
 156 0 l 1,26,-1
 156 606 l 1,27,-1
 -1 606 l 1,12,-1
EndSplineSet
EndChar

StartChar: dcroat
Encoding: 273 273 210
Width: 1078
GlyphClass: 2
Flags: W
LayerCount: 2
Fore
SplineSet
581 104 m 0,0,1
 662 104 662 104 764 126 c 1,2,-1
 764 662 l 1,3,4
 763 662 763 662 751.5 668.5 c 0,5,6
 740 676 740 676 726 682 c 0,7,8
 627 730 627 730 546 729 c 0,9,10
 393 729 393 729 325.5 635 c 128,-1,11
 258 541 258 541 258 402.5 c 128,-1,12
 258 264 258 264 347 184 c 128,-1,13
 436 104 436 104 581 104 c 0,0,1
434 976 m 1,14,-1
 434 1084 l 1,15,-1
 764 1084 l 1,16,-1
 764 1224 l 1,17,-1
 922 1248 l 1,18,-1
 922 1084 l 1,19,-1
 1078 1084 l 1,20,-1
 1078 976 l 1,21,-1
 922 976 l 1,22,-1
 922 45 l 1,23,24
 725 -17 725 -17 574 -17 c 0,25,26
 356 -17 356 -17 229 102.5 c 128,-1,27
 102 222 102 222 102 414 c 128,-1,28
 102 606 102 606 212.5 729.5 c 128,-1,29
 323 853 323 853 480 853 c 0,30,31
 636 853 636 853 754 784 c 0,32,33
 762 779 762 779 764 779 c 1,34,-1
 764 976 l 1,35,-1
 434 976 l 1,14,-1
EndSplineSet
EndChar

StartChar: gcommaaccent
Encoding: 291 291 228
Width: 1070
GlyphClass: 2
Flags: W
LayerCount: 2
Fore
SplineSet
774 25 m 1,0,1
 616 -16 616 -16 569 -16 c 0,2,3
 567 -16 567 -16 565 -16 c 1,4,5
 344 -16 344 -16 223 104.5 c 128,-1,6
 102 225 102 225 102 413.5 c 128,-1,7
 102 602 102 602 214 727.5 c 128,-1,8
 326 853 326 853 501 853 c 0,9,10
 570 853 570 853 636 834 c 0,11,12
 738 804 738 804 769 773 c 1,13,-1
 769 835 l 1,14,-1
 927 835 l 1,15,-1
 927 -16 l 2,16,17
 927 -206 927 -206 829 -299.5 c 128,-1,18
 731 -393 731 -393 581.5 -393 c 128,-1,19
 432 -393 432 -393 299 -338 c 1,20,-1
 299 -210 l 1,21,22
 420 -264 420 -264 572 -264 c 0,23,24
 665 -264 665 -264 719.5 -206 c 128,-1,25
 774 -148 774 -148 774 -37 c 2,26,-1
 774 25 l 1,0,1
569 105 m 0,27,28
 653 105 653 105 769 137 c 1,29,-1
 769 661 l 1,30,31
 656 729 656 729 562.5 729 c 128,-1,32
 469 729 469 729 413.5 702.5 c 128,-1,33
 358 676 358 676 324 630 c 0,34,35
 258 540 258 540 258 400.5 c 128,-1,36
 258 261 258 261 337 183 c 128,-1,37
 416 105 416 105 569 105 c 0,27,28
671 1329 m 1,38,39
 667 1323 667 1323 654.5 1307.5 c 128,-1,40
 642 1292 642 1292 637 1285.5 c 128,-1,41
 632 1279 632 1279 622.5 1265 c 128,-1,42
 613 1251 613 1251 607.5 1242.5 c 128,-1,43
 602 1234 602 1234 596 1222 c 0,44,45
 585 1203 585 1203 578 1177 c 1,46,47
 611 1167 611 1167 630.5 1139 c 128,-1,48
 650 1111 650 1111 650 1074 c 128,-1,49
 650 1037 650 1037 621 1005.5 c 128,-1,50
 592 974 592 974 544 974 c 128,-1,51
 496 974 496 974 467.5 1005.5 c 128,-1,52
 439 1037 439 1037 439 1078 c 0,53,54
 439 1188 439 1188 606 1329 c 1,55,-1
 671 1329 l 1,38,39
EndSplineSet
EndChar

StartChar: Hbar
Encoding: 294 294 231
Width: 1338
GlyphClass: 2
Flags: W
LayerCount: 2
Fore
SplineSet
1016 975 m 1,0,-1
 321 975 l 1,1,-1
 321 721 l 1,2,-1
 1016 721 l 1,3,-1
 1016 975 l 1,0,-1
75 975 m 1,4,-1
 75 1083 l 1,5,-1
 156 1083 l 1,6,-1
 156 1241 l 1,7,-1
 321 1241 l 1,8,-1
 321 1083 l 1,9,-1
 1016 1083 l 1,10,-1
 1016 1241 l 1,11,-1
 1181 1241 l 1,12,-1
 1181 1083 l 1,13,-1
 1263 1083 l 1,14,-1
 1263 975 l 1,15,-1
 1181 975 l 1,16,-1
 1181 0 l 1,17,-1
 1016 0 l 1,18,-1
 1016 585 l 1,19,-1
 321 585 l 1,20,-1
 321 0 l 1,21,-1
 156 0 l 1,22,-1
 156 975 l 1,23,-1
 75 975 l 1,4,-1
EndSplineSet
EndChar

StartChar: hbar
Encoding: 295 295 232
Width: 1177
GlyphClass: 2
Flags: W
LayerCount: 2
Fore
SplineSet
49 985 m 1,0,-1
 49 1093 l 1,1,-1
 170 1093 l 1,2,-1
 170 1223 l 1,3,-1
 329 1249 l 1,4,-1
 329 1093 l 1,5,-1
 643 1093 l 1,6,-1
 643 985 l 1,7,-1
 329 985 l 1,8,-1
 329 713 l 1,9,10
 485 853 485 853 681 853 c 0,11,12
 807 853 807 853 898.5 776 c 128,-1,13
 990 699 990 699 990 580 c 2,14,-1
 990 0 l 1,15,-1
 830 0 l 1,16,-1
 830 559 l 2,17,18
 830 650 830 650 780 690.5 c 128,-1,19
 730 731 730 731 628 731 c 0,20,21
 504 731 504 731 388 646 c 0,22,23
 339 610 339 610 329 592 c 1,24,-1
 329 0 l 1,25,-1
 170 0 l 1,26,-1
 170 985 l 1,27,-1
 49 985 l 1,0,-1
EndSplineSet
EndChar

StartChar: dotlessi
Encoding: 305 305 242
Width: 516
GlyphClass: 2
Flags: W
LayerCount: 2
Fore
SplineSet
182 0 m 1,0,-1
 182 835 l 1,1,-1
 340 835 l 1,2,-1
 340 0 l 1,3,-1
 182 0 l 1,0,-1
EndSplineSet
EndChar

StartChar: kgreenlandic
Encoding: 312 312 249
Width: 926
GlyphClass: 2
Flags: W
LayerCount: 2
Fore
SplineSet
156 -1 m 1,0,-1
 156 834 l 1,1,-1
 314 834 l 1,2,-1
 314 454 l 1,3,-1
 676 834 l 1,4,-1
 872 834 l 1,5,-1
 481 425 l 1,6,-1
 930 0 l 1,7,-1
 728 0 l 1,8,-1
 314 388 l 1,9,-1
 314 -1 l 1,10,-1
 156 -1 l 1,0,-1
EndSplineSet
EndChar

StartChar: Lslash
Encoding: 321 321 258
Width: 1009
GlyphClass: 2
Flags: W
LayerCount: 2
Fore
SplineSet
351 610 m 1,0,-1
 351 139 l 1,1,-1
 883 139 l 1,2,-1
 883 0 l 1,3,-1
 186 0 l 1,4,-1
 186 533 l 1,5,-1
 -1 446 l 1,6,-1
 -1 554 l 1,7,-1
 186 641 l 1,8,-1
 186 1241 l 1,9,-1
 351 1241 l 1,10,-1
 351 718 l 1,11,-1
 643 854 l 1,12,-1
 643 746 l 1,13,-1
 351 610 l 1,0,-1
EndSplineSet
EndChar

StartChar: lslash
Encoding: 322 322 259
Width: 677
GlyphClass: 2
Flags: W
LayerCount: 2
Fore
SplineSet
644 15 m 1,0,1
 560 -18 560 -18 464 -18 c 128,-1,2
 368 -18 368 -18 302.5 45.5 c 128,-1,3
 237 109 237 109 237 229 c 2,4,-1
 237 530 l 1,5,-1
 74 439 l 1,6,-1
 74 547 l 1,7,-1
 237 638 l 1,8,-1
 237 1223 l 1,9,-1
 395 1249 l 1,10,-1
 395 722 l 1,11,-1
 643 854 l 1,12,-1
 643 746 l 1,13,-1
 395 614 l 1,14,-1
 395 257 l 2,15,16
 395 175 395 175 420 141.5 c 128,-1,17
 445 108 445 108 508.5 108 c 128,-1,18
 572 108 572 108 644 134 c 1,19,-1
 644 15 l 1,0,1
EndSplineSet
EndChar

StartChar: Eng
Encoding: 330 330 267
Width: 1362
GlyphClass: 2
Flags: W
LayerCount: 2
Fore
SplineSet
605 -336 m 1,0,-1
 605 -203 l 1,1,2
 746 -256 746 -256 837 -256 c 0,3,4
 1040 -256 1040 -256 1040 3 c 2,5,-1
 1040 138 l 1,6,-1
 321 892 l 1,7,-1
 321 0 l 1,8,-1
 156 0 l 1,9,-1
 156 1273 l 1,10,-1
 1040 339 l 1,11,-1
 1040 1241 l 1,12,-1
 1205 1241 l 1,13,-1
 1205 13 l 2,14,15
 1205 -181 1205 -181 1107 -289 c 128,-1,16
 1009 -397 1009 -397 851 -397 c 0,17,18
 734 -397 734 -397 605 -336 c 1,0,-1
EndSplineSet
EndChar

StartChar: eng
Encoding: 331 331 268
Width: 1113
GlyphClass: 2
Flags: W
LayerCount: 2
Fore
SplineSet
156 0 m 1,0,-1
 156 835 l 1,1,-1
 313 835 l 1,2,-1
 313 713 l 1,3,4
 453 853 453 853 664 853 c 0,5,6
 791 853 791 853 883.5 775.5 c 128,-1,7
 976 698 976 698 976 580 c 2,8,-1
 976 41 l 2,9,10
 976 -131 976 -131 889.5 -226.5 c 128,-1,11
 803 -322 803 -322 664 -322 c 0,12,13
 560 -322 560 -322 447 -268 c 1,14,-1
 447 -135 l 1,15,16
 565 -177 565 -177 643 -177 c 0,17,18
 816 -177 816 -177 816 31 c 2,19,-1
 816 559 l 2,20,21
 816 650 816 650 765 690.5 c 128,-1,22
 714 731 714 731 612 731 c 0,23,24
 487 731 487 731 374 646 c 0,25,26
 327 611 327 611 316 592 c 1,27,-1
 316 0 l 1,28,-1
 156 0 l 1,0,-1
EndSplineSet
EndChar

StartChar: OE
Encoding: 338 338 275
Width: 2047
GlyphClass: 2
Flags: W
LayerCount: 2
Fore
SplineSet
1042.5 25.5 m 128,-1,1
 910 -34 910 -34 782.5 -34 c 128,-1,2
 655 -34 655 -34 559 -8.5 c 128,-1,3
 463 17 463 17 378.5 70.5 c 128,-1,4
 294 124 294 124 231 200 c 0,5,6
 95 364 95 364 95 619 c 0,7,8
 94 990 94 990 378 1170 c 0,9,10
 543 1274 543 1274 756 1274 c 0,11,12
 910 1274 910 1274 1042.5 1215 c 128,-1,13
 1175 1156 1175 1156 1260 1043 c 1,14,-1
 1260 1241 l 1,15,-1
 1981 1241 l 1,16,-1
 1981 1104 l 1,17,-1
 1422 1104 l 1,18,-1
 1422 708 l 1,19,-1
 1917 708 l 1,20,-1
 1917 572 l 1,21,-1
 1420 572 l 1,22,-1
 1420 139 l 1,23,-1
 1991 139 l 1,24,-1
 1991 0 l 1,25,-1
 1260 0 l 1,26,-1
 1260 199 l 1,27,0
 1175 85 1175 85 1042.5 25.5 c 128,-1,1
574 136 m 128,-1,29
 662 104 662 104 757 104 c 128,-1,30
 852 104 852 104 939.5 136 c 128,-1,31
 1027 168 1027 168 1099.5 229.5 c 128,-1,32
 1172 291 1172 291 1216 392 c 128,-1,33
 1260 493 1260 493 1260 619.5 c 128,-1,34
 1260 746 1260 746 1219 847 c 128,-1,35
 1178 948 1178 948 1108 1010 c 0,36,37
 965 1137 965 1137 760 1137 c 0,38,39
 554 1137 554 1137 412 1010 c 0,40,41
 262 877 262 877 262 619 c 0,42,43
 262 492 262 492 303.5 391.5 c 128,-1,44
 345 291 345 291 415.5 229.5 c 128,-1,28
 486 168 486 168 574 136 c 128,-1,29
EndSplineSet
EndChar

StartChar: oe
Encoding: 339 339 276
Width: 1721
GlyphClass: 2
Flags: W
LayerCount: 2
Fore
SplineSet
1020 493 m 1,0,-1
 1500 493 l 1,1,2
 1493 597 1493 597 1435 665.5 c 128,-1,3
 1377 734 1377 734 1279 734 c 0,4,5
 1133 734 1133 734 1061 608 c 0,6,7
 1030 553 1030 553 1020 493 c 1,0,-1
775.5 33 m 128,-1,9
 675 -18 675 -18 554 -18 c 128,-1,10
 433 -18 433 -18 331 32.5 c 128,-1,11
 229 83 229 83 165.5 183 c 128,-1,12
 102 283 102 283 102 399 c 128,-1,13
 102 515 102 515 139 599 c 128,-1,14
 176 683 176 683 238 738 c 0,15,16
 369 853 369 853 556 853 c 0,17,18
 669 853 669 853 768 803 c 128,-1,19
 867 753 867 753 927 661 c 1,20,21
 978 751 978 751 1065.5 802 c 128,-1,22
 1153 853 1153 853 1254.5 853 c 128,-1,23
 1356 853 1356 853 1429 817.5 c 128,-1,24
 1502 782 1502 782 1546 721 c 0,25,26
 1634 598 1634 598 1633 419 c 2,27,-1
 1633 388 l 1,28,-1
 1011 388 l 1,29,30
 1025 244 1025 244 1111.5 174.5 c 128,-1,31
 1198 105 1198 105 1329 105 c 0,32,33
 1450 105 1450 105 1536 147 c 0,34,35
 1564 161 1564 161 1606 185 c 1,36,-1
 1606 57 l 1,37,38
 1479 -17 1479 -17 1338 -17 c 0,39,40
 1050 -17 1050 -17 934 178 c 1,41,8
 876 84 876 84 775.5 33 c 128,-1,9
557 106 m 0,42,43
 654 106 654 106 724 152 c 0,44,45
 859 240 859 240 859 415 c 0,46,47
 860 538 860 538 784 630 c 0,48,49
 703 728 703 728 559.5 728.5 c 128,-1,50
 416 729 416 729 334 635.5 c 128,-1,51
 252 542 252 542 252 412.5 c 128,-1,52
 252 283 252 283 332 194.5 c 128,-1,53
 412 106 412 106 557 106 c 0,42,43
EndSplineSet
EndChar

StartChar: Tbar
Encoding: 358 358 295
Width: 1122
GlyphClass: 2
Flags: W
LayerCount: 2
Fore
SplineSet
231 496 m 1,0,-1
 231 604 l 1,1,-1
 474 604 l 1,2,-1
 474 1102 l 1,3,-1
 86 1102 l 1,4,-1
 86 1241 l 1,5,-1
 1028 1241 l 1,6,-1
 1028 1102 l 1,7,-1
 640 1102 l 1,8,-1
 640 604 l 1,9,-1
 875 604 l 1,10,-1
 875 496 l 1,11,-1
 640 496 l 1,12,-1
 640 0 l 1,13,-1
 474 0 l 1,14,-1
 474 496 l 1,15,-1
 231 496 l 1,0,-1
EndSplineSet
EndChar

StartChar: tbar
Encoding: 359 359 296
Width: 730
GlyphClass: 2
Flags: W
LayerCount: 2
Fore
SplineSet
383.5 132.5 m 128,-1,1
 417 107 417 107 491.5 107 c 128,-1,2
 566 107 566 107 672 160 c 1,3,-1
 672 43 l 1,4,5
 575 -18 575 -18 458.5 -18 c 128,-1,6
 342 -18 342 -18 267.5 39.5 c 128,-1,7
 193 97 193 97 193 197 c 2,8,-1
 193 406 l 1,9,-1
 57 406 l 1,10,-1
 57 514 l 1,11,-1
 193 514 l 1,12,-1
 193 712 l 1,13,-1
 110 712 l 2,14,15
 85 712 85 712 85 732 c 0,16,17
 85 742 85 742 93 750 c 2,18,-1
 350 1026 l 1,19,-1
 350 835 l 1,20,-1
 627 835 l 1,21,-1
 627 712 l 1,22,-1
 350 712 l 1,23,-1
 350 514 l 1,24,-1
 661 514 l 1,25,-1
 661 406 l 1,26,-1
 350 406 l 1,27,-1
 350 226 l 2,28,0
 350 158 350 158 383.5 132.5 c 128,-1,1
EndSplineSet
EndChar

StartChar: florin
Encoding: 402 402 320
Width: 917
GlyphClass: 2
Flags: W
LayerCount: 2
Fore
SplineSet
213 -319 m 0,0,1
 151 -319 151 -319 65 -289 c 1,2,-1
 76 -171 l 1,3,4
 103 -180 l 2,5,6
 151 -196 151 -196 202 -196 c 128,-1,7
 253 -196 253 -196 291 -153 c 128,-1,8
 329 -110 329 -110 338 -4 c 2,9,-1
 391 577 l 1,10,-1
 190 577 l 1,11,-1
 194 682 l 1,12,-1
 400 682 l 1,13,-1
 419 902 l 1,14,15
 448 1221 448 1221 713 1221 c 1,16,17
 767 1221 767 1221 851 1195 c 1,18,-1
 839 1076 l 1,19,20
 767 1096 767 1096 736 1096 c 0,21,22
 667 1096 667 1096 627.5 1052 c 128,-1,23
 588 1008 588 1008 579 902 c 2,24,-1
 559 682 l 1,25,-1
 792 682 l 1,26,-1
 788 577 l 1,27,-1
 549 577 l 1,28,-1
 496 0 l 2,29,30
 483 -152 483 -152 412 -235.5 c 128,-1,31
 341 -319 341 -319 213 -319 c 0,0,1
EndSplineSet
EndChar

StartChar: uni0237
Encoding: 567 567 363
Width: 539
GlyphClass: 2
Flags: W
AnchorPoint: "Anchor-1" 286 840 basechar 0
LayerCount: 2
Fore
SplineSet
46 -330 m 1,0,-1
 17 -202 l 1,1,2
 41 -199 41 -199 46 -199 c 0,3,4
 123 -190 123 -190 166 -159 c 128,-1,5
 209 -128 209 -128 209 -57 c 2,6,-1
 209 835 l 1,7,-1
 368 835 l 1,8,-1
 368 -67 l 2,9,10
 368 -317 368 -317 46 -330 c 1,0,-1
EndSplineSet
EndChar

StartChar: circumflex
Encoding: 710 710 364
Width: 766
GlyphClass: 4
Flags: W
AnchorPoint: "Anchor-1" 374 0 mark 0
LayerCount: 2
Fore
SplineSet
626 159 m 0,0,1
 626 134 626 134 604 134 c 0,2,3
 593 134 593 134 579 148 c 1,4,-1
 382 376 l 1,5,-1
 185 148 l 2,6,7
 173 134 173 134 160 134 c 0,8,9
 138 134 138 134 138 159 c 0,10,11
 138 165 138 165 143 177 c 1,12,-1
 308 499 l 1,13,14
 334 552 334 552 382 552 c 0,15,16
 432 552 432 552 456 499 c 1,17,-1
 621 177 l 2,18,19
 626 168 626 168 626 159 c 0,0,1
EndSplineSet
EndChar

StartChar: caron
Encoding: 711 711 365
Width: 765
GlyphClass: 4
Flags: W
AnchorPoint: "Anchor-1" 372 0 mark 0
LayerCount: 2
Fore
SplineSet
308 195 m 1,0,-1
 143 517 l 1,1,2
 138 529 138 529 138 537.5 c 128,-1,3
 138 546 138 546 144.5 553 c 128,-1,4
 151 560 151 560 162 560 c 128,-1,5
 173 560 173 560 185 546 c 2,6,-1
 382 318 l 1,7,-1
 579 546 l 1,8,9
 593 560 593 560 603 560 c 128,-1,10
 613 560 613 560 619.5 553 c 128,-1,11
 626 546 626 546 626 536 c 128,-1,12
 626 526 626 526 621 517 c 2,13,-1
 456 195 l 1,14,15
 430 142 430 142 381 142 c 128,-1,16
 332 142 332 142 308 195 c 1,0,-1
EndSplineSet
EndChar

StartChar: breve
Encoding: 728 728 366
Width: 743
GlyphClass: 4
Flags: W
AnchorPoint: "Anchor-1" 362 0 mark 0
LayerCount: 2
Fore
SplineSet
370 142 m 128,-1,1
 312 142 312 142 267.5 161.5 c 0,2,3
 222 180 222 180 200 208 c 0,4,5
 152 266 152 266 146 310 c 1,6,-1
 142 330 l 1,7,-1
 228 350 l 1,8,9
 242 279 242 279 310 249 c 0,10,11
 337 237 337 237 379.5 237 c 128,-1,12
 422 237 422 237 457.5 265.5 c 128,-1,13
 493 294 493 294 502 322 c 2,14,-1
 512 350 l 1,15,-1
 598 330 l 1,16,17
 582 214 582 214 472 162 c 0,18,0
 428 142 428 142 370 142 c 128,-1,1
EndSplineSet
EndChar

StartChar: ring
Encoding: 730 730 368
Width: 736
GlyphClass: 4
Flags: W
AnchorPoint: "Anchor-1" 364 0 mark 0
LayerCount: 2
Fore
SplineSet
524.5 234.5 m 128,-1,1
 459 177 459 177 367.5 177 c 128,-1,2
 276 177 276 177 211 234 c 128,-1,3
 146 291 146 291 146 389 c 128,-1,4
 146 487 146 487 211.5 545.5 c 128,-1,5
 277 604 277 604 366 604 c 128,-1,6
 455 604 455 604 522.5 545 c 128,-1,7
 590 486 590 486 590 389 c 128,-1,0
 590 292 590 292 524.5 234.5 c 128,-1,1
269.5 293 m 128,-1,9
 304 255 304 255 366.5 255 c 128,-1,10
 429 255 429 255 464 294.5 c 128,-1,11
 499 334 499 334 499 388.5 c 128,-1,12
 499 443 499 443 463.5 483.5 c 128,-1,13
 428 524 428 524 367 524 c 128,-1,14
 306 524 306 524 270.5 483.5 c 128,-1,15
 235 443 235 443 235 387 c 128,-1,8
 235 331 235 331 269.5 293 c 128,-1,9
EndSplineSet
EndChar

StartChar: ogonek
Encoding: 731 731 369
Width: 451
GlyphClass: 4
Flags: W
AnchorPoint: "Anchor-0" 301 0 mark 0
LayerCount: 2
Fore
SplineSet
264 -384 m 1,0,1
 121 -331 121 -331 121 -230.5 c 128,-1,2
 121 -130 121 -130 274 0 c 1,3,-1
 333 0 l 1,4,5
 275 -74 275 -74 259.5 -110.5 c 128,-1,6
 244 -147 244 -147 244 -176 c 0,7,8
 244 -251 244 -251 333 -326 c 1,9,-1
 264 -384 l 1,0,1
EndSplineSet
EndChar

StartChar: tilde
Encoding: 732 732 370
Width: 921
GlyphClass: 4
Flags: W
AnchorPoint: "Anchor-1" 496 0 mark 0
LayerCount: 2
Fore
SplineSet
768 373 m 1,0,1
 766 163 766 163 617 163 c 0,2,3
 549 163 549 163 491 189.5 c 128,-1,4
 433 216 433 216 384.5 242 c 128,-1,5
 336 268 336 268 304.5 268 c 128,-1,6
 273 268 273 268 259.5 246.5 c 128,-1,7
 246 225 246 225 244 177 c 1,8,-1
 140 177 l 1,9,10
 141 296 141 296 180 341.5 c 128,-1,11
 219 387 219 387 284 387 c 128,-1,12
 349 387 349 387 411 360 c 128,-1,13
 473 333 473 333 525 306 c 128,-1,14
 577 279 577 279 605.5 279 c 128,-1,15
 634 279 634 279 648 299 c 128,-1,16
 662 319 662 319 663 373 c 1,17,-1
 768 373 l 1,0,1
EndSplineSet
EndChar

StartChar: hungarumlaut
Encoding: 733 733 371
Width: 689
GlyphClass: 4
Flags: W
AnchorPoint: "Anchor-1" 104 0 mark 0
LayerCount: 2
Fore
SplineSet
368 111 m 0,0,1
 346 111 346 111 346 135 c 0,2,3
 346 141 346 141 351 153 c 1,4,-1
 516 475 l 2,5,6
 543 528 543 528 580 528 c 128,-1,7
 617 528 617 528 639 508 c 128,-1,8
 661 488 661 488 661 460.5 c 128,-1,9
 661 433 661 433 637 406 c 2,10,-1
 393 124 l 2,11,12
 381 111 381 111 368 111 c 0,0,1
108 111 m 0,13,14
 86 111 86 111 86 135 c 0,15,16
 86 141 86 141 91 153 c 1,17,-1
 256 475 l 2,18,19
 283 528 283 528 320 528 c 128,-1,20
 357 528 357 528 379 508 c 128,-1,21
 401 488 401 488 401 460.5 c 128,-1,22
 401 433 401 433 377 406 c 2,23,-1
 133 124 l 2,24,25
 121 111 121 111 108 111 c 0,13,14
EndSplineSet
EndChar

StartChar: uni030F
Encoding: 783 783 373
Width: 651
GlyphClass: 4
Flags: W
AnchorPoint: "Anchor-1" 446 -1 mark 0
LayerCount: 2
Fore
SplineSet
310 135 m 0,0,1
 310 111 310 111 288 111 c 0,2,3
 275 111 275 111 263 124 c 2,4,-1
 19 406 l 2,5,6
 -5 433 -5 433 -5 460.5 c 128,-1,7
 -5 488 -5 488 17 508 c 128,-1,8
 39 528 39 528 76 528 c 128,-1,9
 113 528 113 528 140 475 c 2,10,-1
 305 153 l 1,11,12
 310 141 310 141 310 135 c 0,0,1
578 135 m 0,13,14
 578 111 578 111 556 111 c 0,15,16
 543 111 543 111 531 124 c 2,17,-1
 287 406 l 2,18,19
 263 433 263 433 263 460.5 c 128,-1,20
 263 488 263 488 285 508 c 128,-1,21
 307 528 307 528 344 528 c 128,-1,22
 381 528 381 528 408 475 c 2,23,-1
 573 153 l 1,24,25
 578 141 578 141 578 135 c 0,13,14
EndSplineSet
EndChar

StartChar: uni0311
Encoding: 785 785 374
Width: 743
GlyphClass: 4
Flags: W
AnchorPoint: "Anchor-1" 362 0 mark 0
LayerCount: 2
Fore
SplineSet
228 142 m 1,0,-1
 142 162 l 1,1,2
 158 278 158 278 268 330 c 0,3,4
 312 350 312 350 370 350 c 128,-1,5
 428 350 428 350 472.5 330.5 c 0,6,7
 518 312 518 312 540 284 c 0,8,9
 588 226 588 226 594 182 c 1,10,-1
 598 162 l 1,11,-1
 512 142 l 1,12,13
 498 213 498 213 430 243 c 0,14,15
 403 255 403 255 360.5 255 c 128,-1,16
 318 255 318 255 282.5 226.5 c 128,-1,17
 247 198 247 198 238 170 c 2,18,-1
 228 142 l 1,0,-1
EndSplineSet
EndChar

StartChar: uni0326
Encoding: 806 806 375
Width: 459
GlyphClass: 4
Flags: W
AnchorPoint: "Anchor-0" 305 0 mark 0
LayerCount: 2
Fore
SplineSet
142 -460 m 0,0,1
 120 -460 120 -460 120 -437 c 0,2,3
 120 -429 120 -429 123 -421 c 2,4,-1
 235 -151 l 1,5,6
 259 -99 259 -99 296.5 -99 c 128,-1,7
 334 -99 334 -99 356 -118.5 c 128,-1,8
 378 -138 378 -138 378 -163.5 c 128,-1,9
 378 -189 378 -189 357 -216 c 2,10,-1
 167 -447 l 1,11,12
 155 -460 155 -460 142 -460 c 0,0,1
EndSplineSet
EndChar

StartChar: quoteleft
Encoding: 8216 8216 398
Width: 493
GlyphClass: 2
Flags: W
LayerCount: 2
Fore
SplineSet
367 886 m 1,0,-1
 302 886 l 1,1,2
 135 1027 135 1027 135 1137 c 0,3,4
 135 1178 135 1178 163.5 1209.5 c 128,-1,5
 192 1241 192 1241 240 1241 c 128,-1,6
 288 1241 288 1241 317 1209.5 c 128,-1,7
 346 1178 346 1178 346 1141 c 128,-1,8
 346 1104 346 1104 326.5 1076 c 128,-1,9
 307 1048 307 1048 274 1038 c 1,10,11
 283 1000 283 1000 307.5 966 c 128,-1,12
 332 932 332 932 348.5 910.5 c 128,-1,13
 365 889 365 889 367 886 c 1,0,-1
EndSplineSet
EndChar

StartChar: quoteright
Encoding: 8217 8217 399
Width: 492
GlyphClass: 2
Flags: W
LayerCount: 2
Fore
SplineSet
127 886 m 1,0,1
 131 892 131 892 143.5 907.5 c 128,-1,2
 156 923 156 923 161 929.5 c 128,-1,3
 166 936 166 936 175.5 950 c 128,-1,4
 185 964 185 964 190.5 972.5 c 128,-1,5
 196 981 196 981 202 993 c 0,6,7
 213 1012 213 1012 220 1038 c 1,8,9
 187 1048 187 1048 167.5 1076 c 128,-1,10
 148 1104 148 1104 148 1141 c 128,-1,11
 148 1178 148 1178 177 1209.5 c 128,-1,12
 206 1241 206 1241 254 1241 c 128,-1,13
 302 1241 302 1241 330.5 1209.5 c 128,-1,14
 359 1178 359 1178 359 1137 c 0,15,16
 359 1027 359 1027 192 886 c 1,17,-1
 127 886 l 1,0,1
EndSplineSet
EndChar

StartChar: quotedblleft
Encoding: 8220 8220 401
Width: 761
GlyphClass: 2
Flags: W
LayerCount: 2
Fore
SplineSet
635 886 m 1,0,-1
 570 886 l 1,1,2
 403 1027 403 1027 403 1137 c 0,3,4
 403 1178 403 1178 431.5 1209.5 c 128,-1,5
 460 1241 460 1241 508 1241 c 128,-1,6
 556 1241 556 1241 585 1209.5 c 128,-1,7
 614 1178 614 1178 614 1141 c 128,-1,8
 614 1104 614 1104 594.5 1076 c 128,-1,9
 575 1048 575 1048 542 1038 c 1,10,11
 551 1000 551 1000 575.5 966 c 128,-1,12
 600 932 600 932 616.5 910.5 c 128,-1,13
 633 889 633 889 635 886 c 1,0,-1
367 886 m 1,14,-1
 302 886 l 1,15,16
 135 1027 135 1027 135 1137 c 0,17,18
 135 1178 135 1178 163.5 1209.5 c 128,-1,19
 192 1241 192 1241 240 1241 c 128,-1,20
 288 1241 288 1241 317 1209.5 c 128,-1,21
 346 1178 346 1178 346 1141 c 128,-1,22
 346 1104 346 1104 326.5 1076 c 128,-1,23
 307 1048 307 1048 274 1038 c 1,24,25
 283 1000 283 1000 307.5 966 c 128,-1,26
 332 932 332 932 348.5 910.5 c 128,-1,27
 365 889 365 889 367 886 c 1,14,-1
EndSplineSet
EndChar

StartChar: quotedblright
Encoding: 8221 8221 402
Width: 760
GlyphClass: 2
Flags: W
LayerCount: 2
Fore
SplineSet
127 886 m 1,0,1
 131 892 131 892 143.5 907.5 c 128,-1,2
 156 923 156 923 161 929.5 c 128,-1,3
 166 936 166 936 175.5 950 c 128,-1,4
 185 964 185 964 190.5 972.5 c 128,-1,5
 196 981 196 981 202 993 c 0,6,7
 213 1012 213 1012 220 1038 c 1,8,9
 187 1048 187 1048 167.5 1076 c 128,-1,10
 148 1104 148 1104 148 1141 c 128,-1,11
 148 1178 148 1178 177 1209.5 c 128,-1,12
 206 1241 206 1241 254 1241 c 128,-1,13
 302 1241 302 1241 330.5 1209.5 c 128,-1,14
 359 1178 359 1178 359 1137 c 0,15,16
 359 1027 359 1027 192 886 c 1,17,-1
 127 886 l 1,0,1
395 886 m 1,18,19
 399 892 399 892 411.5 907.5 c 128,-1,20
 424 923 424 923 429 929.5 c 128,-1,21
 434 936 434 936 443.5 950 c 128,-1,22
 453 964 453 964 458.5 972.5 c 128,-1,23
 464 981 464 981 470 993 c 0,24,25
 481 1012 481 1012 488 1038 c 1,26,27
 455 1048 455 1048 435.5 1076 c 128,-1,28
 416 1104 416 1104 416 1141 c 128,-1,29
 416 1178 416 1178 445 1209.5 c 128,-1,30
 474 1241 474 1241 522 1241 c 128,-1,31
 570 1241 570 1241 598.5 1209.5 c 128,-1,32
 627 1178 627 1178 627 1137 c 0,33,34
 627 1027 627 1027 460 886 c 1,35,-1
 395 886 l 1,18,19
EndSplineSet
EndChar

StartChar: quotedblbase
Encoding: 8222 8222 403
Width: 755
GlyphClass: 2
Flags: W
LayerCount: 2
Fore
SplineSet
128 -131 m 1,0,1
 132 -125 132 -125 144.5 -109.5 c 128,-1,2
 157 -94 157 -94 162 -87.5 c 128,-1,3
 167 -81 167 -81 176.5 -67 c 128,-1,4
 186 -53 186 -53 191.5 -44.5 c 0,5,6
 198 -36 198 -36 204 -24 c 0,7,8
 215 -5 215 -5 221 21 c 1,9,10
 188 31 188 31 168.5 59 c 128,-1,11
 149 87 149 87 149 124 c 128,-1,12
 149 161 149 161 178 192.5 c 128,-1,13
 207 224 207 224 255 224 c 128,-1,14
 303 224 303 224 331.5 192.5 c 128,-1,15
 360 161 360 161 360 120 c 0,16,17
 360 10 360 10 193 -131 c 1,18,-1
 128 -131 l 1,0,1
390 -131 m 1,19,20
 394 -125 394 -125 406.5 -109.5 c 128,-1,21
 419 -94 419 -94 424 -87.5 c 128,-1,22
 429 -81 429 -81 438.5 -67 c 128,-1,23
 448 -53 448 -53 453.5 -44.5 c 0,24,25
 460 -36 460 -36 466 -24 c 0,26,27
 477 -5 477 -5 483 21 c 1,28,29
 450 31 450 31 430.5 59 c 128,-1,30
 411 87 411 87 411 124 c 128,-1,31
 411 161 411 161 440 192.5 c 128,-1,32
 469 224 469 224 517 224 c 128,-1,33
 565 224 565 224 593.5 192.5 c 128,-1,34
 622 161 622 161 622 120 c 0,35,36
 622 10 622 10 455 -131 c 1,37,-1
 390 -131 l 1,19,20
EndSplineSet
EndChar

StartChar: dagger
Encoding: 8224 8224 404
Width: 937
GlyphClass: 2
Flags: W
LayerCount: 2
Fore
SplineSet
413 0 m 1,0,-1
 413 672 l 1,1,-1
 146 672 l 1,2,-1
 146 781 l 1,3,-1
 413 781 l 1,4,-1
 413 1049 l 1,5,-1
 522 1049 l 1,6,-1
 522 781 l 1,7,-1
 790 781 l 1,8,-1
 790 672 l 1,9,-1
 522 672 l 1,10,-1
 522 0 l 1,11,-1
 413 0 l 1,0,-1
EndSplineSet
EndChar

StartChar: daggerdbl
Encoding: 8225 8225 405
Width: 943
GlyphClass: 2
Flags: W
LayerCount: 2
Fore
SplineSet
416 0 m 1,0,-1
 416 250 l 1,1,-1
 149 250 l 1,2,-1
 149 359 l 1,3,-1
 416 359 l 1,4,-1
 416 672 l 1,5,-1
 149 672 l 1,6,-1
 149 781 l 1,7,-1
 416 781 l 1,8,-1
 416 1049 l 1,9,-1
 525 1049 l 1,10,-1
 525 781 l 1,11,-1
 793 781 l 1,12,-1
 793 672 l 1,13,-1
 525 672 l 1,14,-1
 525 359 l 1,15,-1
 793 359 l 1,16,-1
 793 250 l 1,17,-1
 525 250 l 1,18,-1
 525 0 l 1,19,-1
 416 0 l 1,0,-1
EndSplineSet
EndChar

StartChar: bullet
Encoding: 8226 8226 406
Width: 727
GlyphClass: 2
Flags: W
LayerCount: 2
Fore
SplineSet
515.5 455.5 m 128,-1,1
 450 397 450 397 361.5 397 c 128,-1,2
 273 397 273 397 209.5 455 c 128,-1,3
 146 513 146 513 146 618 c 128,-1,4
 146 723 146 723 210.5 781.5 c 128,-1,5
 275 840 275 840 363 840 c 128,-1,6
 451 840 451 840 516 781 c 128,-1,7
 581 722 581 722 581 618 c 128,-1,0
 581 514 581 514 515.5 455.5 c 128,-1,1
EndSplineSet
EndChar

StartChar: perthousand
Encoding: 8240 8240 408
Width: 2047
GlyphClass: 2
Flags: W
LayerCount: 2
Fore
SplineSet
1838.5 30.5 m 128,-1,1
 1777 0 1777 0 1703.5 0 c 128,-1,2
 1630 0 1630 0 1569 30.5 c 128,-1,3
 1508 61 1508 61 1469.5 121 c 128,-1,4
 1431 181 1431 181 1431 260.5 c 0,5,6
 1432 340 1432 340 1470 401 c 0,7,8
 1547 523 1547 523 1705 523 c 0,9,10
 1857 522 1857 522 1937 400 c 0,11,12
 1977 338 1977 338 1977 259.5 c 128,-1,13
 1977 181 1977 181 1938.5 121 c 128,-1,0
 1900 61 1900 61 1838.5 30.5 c 128,-1,1
1569 128 m 128,-1,15
 1617 75 1617 75 1703.5 75 c 128,-1,16
 1790 75 1790 75 1839 129.5 c 128,-1,17
 1888 184 1888 184 1888 260 c 128,-1,18
 1888 336 1888 336 1838.5 392 c 128,-1,19
 1789 448 1789 448 1704 448 c 128,-1,20
 1619 448 1619 448 1570 392 c 128,-1,21
 1521 336 1521 336 1521 258.5 c 128,-1,14
 1521 181 1521 181 1569 128 c 128,-1,15
1202.5 30.5 m 128,-1,23
 1141 0 1141 0 1067.5 0 c 128,-1,24
 994 0 994 0 933 30.5 c 128,-1,25
 872 61 872 61 833.5 121 c 128,-1,26
 795 181 795 181 795 260.5 c 0,27,28
 796 340 796 340 834 401 c 0,29,30
 911 523 911 523 1069 523 c 0,31,32
 1221 522 1221 522 1301 400 c 0,33,34
 1341 338 1341 338 1341 259.5 c 128,-1,35
 1341 181 1341 181 1302.5 121 c 128,-1,22
 1264 61 1264 61 1202.5 30.5 c 128,-1,23
933 128 m 128,-1,37
 981 75 981 75 1067.5 75 c 128,-1,38
 1154 75 1154 75 1203 129.5 c 128,-1,39
 1252 184 1252 184 1252 260 c 128,-1,40
 1252 336 1252 336 1202.5 392 c 128,-1,41
 1153 448 1153 448 1068 448 c 128,-1,42
 983 448 983 448 934 392 c 128,-1,43
 885 336 885 336 885 258.5 c 128,-1,36
 885 181 885 181 933 128 c 128,-1,37
475.5 756.5 m 128,-1,45
 414 726 414 726 340.5 726 c 128,-1,46
 267 726 267 726 206 756.5 c 128,-1,47
 145 787 145 787 106.5 847 c 128,-1,48
 68 907 68 907 68 986.5 c 128,-1,49
 68 1066 68 1066 106 1127 c 0,50,51
 183 1249 183 1249 342 1249 c 0,52,53
 494 1248 494 1248 574 1126 c 0,54,55
 614 1064 614 1064 614 985.5 c 128,-1,56
 614 907 614 907 575.5 847 c 128,-1,44
 537 787 537 787 475.5 756.5 c 128,-1,45
206 854 m 128,-1,58
 254 801 254 801 340.5 801 c 128,-1,59
 427 801 427 801 476 855.5 c 128,-1,60
 525 910 525 910 525 986 c 128,-1,61
 525 1062 525 1062 475.5 1118 c 128,-1,62
 426 1174 426 1174 341 1174 c 128,-1,63
 256 1174 256 1174 207 1118 c 128,-1,64
 158 1062 158 1062 158 984.5 c 128,-1,57
 158 907 158 907 206 854 c 128,-1,58
301 0 m 1,65,-1
 1020 1241 l 1,66,-1
 1103 1241 l 1,67,-1
 382 0 l 1,68,-1
 301 0 l 1,65,-1
EndSplineSet
EndChar

StartChar: guilsinglleft
Encoding: 8249 8249 409
Width: 512
GlyphClass: 2
Flags: W
LayerCount: 2
Fore
SplineSet
434.5 196.5 m 128,-1,1
 426 189 426 189 414 189 c 128,-1,2
 402 189 402 189 391 194 c 1,3,-1
 125 414 l 1,4,5
 69 451 69 451 69 503.5 c 128,-1,6
 69 556 69 556 125 592 c 1,7,-1
 391 813 l 1,8,9
 402 818 402 818 414 818 c 128,-1,10
 426 818 426 818 434.5 810.5 c 128,-1,11
 443 803 443 803 443 792 c 128,-1,12
 443 781 443 781 426 762 c 1,13,-1
 247 503 l 1,14,-1
 426 245 l 1,15,16
 443 225 443 225 443 214.5 c 128,-1,0
 443 204 443 204 434.5 196.5 c 128,-1,1
EndSplineSet
EndChar

StartChar: guilsinglright
Encoding: 8250 8250 410
Width: 512
GlyphClass: 2
Flags: W
LayerCount: 2
Fore
SplineSet
122 194 m 1,0,1
 112 189 112 189 99.5 189 c 128,-1,2
 87 189 87 189 78.5 196.5 c 128,-1,3
 70 204 70 204 70 214.5 c 128,-1,4
 70 225 70 225 87 245 c 1,5,-1
 266 504 l 1,6,-1
 87 762 l 1,7,8
 70 781 70 781 70 791.5 c 128,-1,9
 70 802 70 802 78.5 810 c 128,-1,10
 87 818 87 818 99.5 818 c 128,-1,11
 112 818 112 818 122 812 c 1,12,-1
 388 592 l 1,13,14
 444 557 444 557 444 503.5 c 128,-1,15
 444 450 444 450 388 414 c 1,16,-1
 122 194 l 1,0,1
EndSplineSet
EndChar

StartChar: Euro
Encoding: 8364 8364 411
Width: 1293
GlyphClass: 2
Flags: W
LayerCount: 2
Fore
SplineSet
411 1142 m 128,-1,1
 589 1275 589 1275 814 1275 c 128,-1,2
 1039 1275 1039 1275 1222 1170 c 1,3,-1
 1222 1028 l 1,4,5
 1041 1136 1041 1136 850.5 1136 c 128,-1,6
 660 1136 660 1136 528 1046 c 128,-1,7
 396 956 396 956 357 780 c 1,8,-1
 782 780 l 1,9,-1
 782 675 l 1,10,-1
 342 675 l 1,11,12
 341 664 341 664 341 624 c 128,-1,13
 341 584 341 584 348 539 c 1,14,-1
 782 539 l 1,15,-1
 782 434 l 1,16,-1
 373 434 l 1,17,18
 425 275 425 275 553.5 189.5 c 128,-1,19
 682 104 682 104 860 104 c 128,-1,20
 1038 104 1038 104 1222 208 c 1,21,-1
 1222 59 l 1,22,23
 1038 -33 1038 -33 826.5 -33 c 128,-1,24
 615 -33 615 -33 439 92 c 128,-1,25
 263 217 263 217 202 434 c 1,26,-1
 69 434 l 1,27,-1
 69 539 l 1,28,-1
 181 539 l 1,29,30
 174 595 174 595 174 640 c 1,31,-1
 175 675 l 1,32,-1
 69 675 l 1,33,-1
 69 780 l 1,34,-1
 188 780 l 1,35,0
 233 1009 233 1009 411 1142 c 128,-1,1
EndSplineSet
EndChar

StartChar: trademark
Encoding: 8482 8482 412
Width: 1972
GlyphClass: 2
Flags: W
LayerCount: 2
Fore
SplineSet
344 342 m 1,0,-1
 344 1113 l 1,1,-1
 73 1113 l 1,2,-1
 73 1211 l 1,3,-1
 732 1211 l 1,4,-1
 732 1113 l 1,5,-1
 461 1113 l 1,6,-1
 461 342 l 1,7,-1
 344 342 l 1,0,-1
1379 354 m 1,8,-1
 1054 926 l 1,9,-1
 964 342 l 1,10,-1
 850 342 l 1,11,-1
 996 1239 l 1,12,-1
 1378 555 l 1,13,-1
 1762 1239 l 1,14,-1
 1907 342 l 1,15,-1
 1794 342 l 1,16,-1
 1703 926 l 1,17,-1
 1379 354 l 1,8,-1
EndSplineSet
EndChar

StartChar: minus
Encoding: 8722 8722 413
Width: 951
GlyphClass: 2
Flags: W
LayerCount: 2
Fore
SplineSet
153 540 m 1,0,-1
 153 648 l 1,1,-1
 797 648 l 1,2,-1
 797 540 l 1,3,-1
 153 540 l 1,0,-1
EndSplineSet
EndChar

StartChar: infinity
Encoding: 8734 8734 414
Width: 1188
GlyphClass: 2
Flags: W
LayerCount: 2
Fore
SplineSet
195 18 m 128,-1,1
 148 74 148 74 148 177.5 c 128,-1,2
 148 281 148 281 190.5 338 c 128,-1,3
 233 395 233 395 309 395 c 0,4,5
 391 395 391 395 472 327 c 0,6,7
 566 248 566 248 594 236 c 1,8,9
 627 249 627 249 691 301 c 0,10,11
 849 394 849 394 880 393 c 0,12,13
 882 393 882 393 884 393 c 1,14,15
 1040 393 1040 393 1040 177 c 0,16,17
 1040 73 1040 73 996.5 18 c 128,-1,18
 953 -37 953 -37 879 -37 c 0,19,20
 807 -37 807 -37 742 12 c 0,21,22
 714 32 714 32 690 54 c 0,23,24
 625 111 625 111 594 120 c 1,25,26
 564 109 564 109 522 70.5 c 128,-1,27
 480 32 480 32 454 10 c 0,28,29
 353 -39 353 -39 322 -38 c 0,30,31
 320 -38 320 -38 318 -38 c 1,32,0
 242 -38 242 -38 195 18 c 128,-1,1
912.5 103.5 m 128,-1,34
 936 124 936 124 936 174.5 c 128,-1,35
 936 225 936 225 912 246.5 c 128,-1,36
 888 268 888 268 851.5 268 c 128,-1,37
 815 268 815 268 790.5 255 c 128,-1,38
 766 242 766 242 729.5 214.5 c 128,-1,39
 693 187 693 187 675 176 c 1,40,41
 696 163 696 163 734 136 c 0,42,43
 808 83 808 83 833 83 c 0,44,33
 889 83 889 83 912.5 103.5 c 128,-1,34
273.5 246.5 m 128,-1,46
 252 225 252 225 252 174.5 c 128,-1,47
 252 124 252 124 273 103.5 c 128,-1,48
 294 83 294 83 328 83 c 128,-1,49
 362 83 362 83 386.5 96 c 128,-1,50
 411 109 411 109 451 136 c 128,-1,51
 491 163 491 163 513 176 c 1,52,53
 494 186 494 186 455 214 c 0,54,55
 379 268 379 268 337 268 c 128,-1,45
 295 268 295 268 273.5 246.5 c 128,-1,46
EndSplineSet
EndChar

StartChar: integral
Encoding: 8747 8747 415
Width: 917
GlyphClass: 2
Flags: W
LayerCount: 2
Fore
SplineSet
214 -319 m 0,0,1
 153 -319 153 -319 67 -289 c 1,2,-1
 78 -171 l 1,3,4
 86 -173 86 -173 104.5 -179.5 c 128,-1,5
 123 -186 123 -186 132 -188 c 0,6,7
 159 -196 159 -196 189 -196 c 0,8,9
 255 -196 255 -196 292.5 -152.5 c 128,-1,10
 330 -109 330 -109 339 -4 c 2,11,-1
 421 902 l 2,12,13
 450 1221 450 1221 714 1221 c 1,14,15
 768 1221 768 1221 852 1195 c 1,16,-1
 841 1076 l 1,17,18
 769 1096 769 1096 738 1096 c 0,19,20
 669 1096 669 1096 629 1052 c 128,-1,21
 589 1008 589 1008 580 902 c 2,22,-1
 498 0 l 2,23,24
 484 -152 484 -152 413.5 -235.5 c 128,-1,25
 343 -319 343 -319 214 -319 c 0,0,1
EndSplineSet
EndChar

StartChar: approxequal
Encoding: 8776 8776 416
Width: 1015
GlyphClass: 2
Flags: W
LayerCount: 2
Fore
SplineSet
703 299 m 0,0,1
 643 299 643 299 502.5 358 c 128,-1,2
 362 417 362 417 328 417 c 0,3,4
 244 417 244 417 240 313 c 1,5,-1
 136 313 l 1,6,7
 137 428 137 428 188 481.5 c 128,-1,8
 239 535 239 535 318 535 c 0,9,10
 402 535 402 535 525 477.5 c 128,-1,11
 648 420 648 420 690 420 c 0,12,13
 772 420 772 420 776 521 c 1,14,-1
 880 521 l 1,15,16
 879 299 879 299 703 299 c 0,0,1
703 614 m 0,17,18
 643 614 643 614 502.5 673 c 128,-1,19
 362 732 362 732 328 732 c 0,20,21
 244 732 244 732 240 627 c 1,22,-1
 136 627 l 1,23,24
 137 742 137 742 188 796 c 128,-1,25
 239 850 239 850 306.5 850 c 128,-1,26
 374 850 374 850 450.5 821 c 128,-1,27
 527 792 527 792 595 763.5 c 128,-1,28
 663 735 663 735 697.5 735 c 128,-1,29
 732 735 732 735 753 762 c 128,-1,30
 774 789 774 789 776 836 c 1,31,-1
 880 836 l 1,32,33
 879 614 879 614 703 614 c 0,17,18
EndSplineSet
EndChar

StartChar: lessequal
Encoding: 8804 8804 418
Width: 1069
GlyphClass: 2
Flags: W
LayerCount: 2
Fore
SplineSet
140 0 m 1,0,-1
 140 99 l 1,1,-1
 929 99 l 1,2,-1
 929 0 l 1,3,-1
 140 0 l 1,0,-1
929 170 m 1,4,-1
 129 504 l 1,5,-1
 929 860 l 1,6,-1
 929 717 l 1,7,-1
 423 508 l 1,8,-1
 929 315 l 1,9,-1
 929 170 l 1,4,-1
EndSplineSet
EndChar

StartChar: greaterequal
Encoding: 8805 8805 419
Width: 1069
GlyphClass: 2
Flags: W
LayerCount: 2
Fore
SplineSet
143 0 m 1,0,-1
 143 99 l 1,1,-1
 932 99 l 1,2,-1
 932 0 l 1,3,-1
 143 0 l 1,0,-1
140 860 m 1,4,-1
 940 531 l 1,5,-1
 140 170 l 1,6,-1
 140 318 l 1,7,-1
 645 527 l 1,8,-1
 140 720 l 1,9,-1
 140 860 l 1,4,-1
EndSplineSet
EndChar

StartChar: lozenge
Encoding: 9674 9674 420
Width: 916
GlyphClass: 2
Flags: W
LayerCount: 2
Fore
SplineSet
461 -26 m 1,0,-1
 121 650 l 1,1,-1
 453 1326 l 1,2,-1
 794 650 l 1,3,-1
 461 -26 l 1,0,-1
462 199 m 1,4,-1
 668 650 l 1,5,-1
 453 1102 l 1,6,-1
 246 650 l 1,7,-1
 462 199 l 1,4,-1
EndSplineSet
EndChar

StartChar: uniFB00
Encoding: 64256 64256 421
Width: 1231
GlyphClass: 3
Flags: W
LayerCount: 2
Fore
SplineSet
1246 1062 m 1,0,1
 1171 1087 1171 1087 1120 1087 c 0,2,3
 972 1087 972 1087 972 902 c 2,4,-1
 972 835 l 1,5,-1
 1168 835 l 1,6,-1
 1168 710 l 1,7,-1
 974 710 l 1,8,-1
 974 0 l 1,9,-1
 816 0 l 1,10,-1
 816 710 l 1,11,-1
 370 710 l 1,12,-1
 370 0 l 1,13,-1
 211 0 l 1,14,-1
 211 710 l 1,15,-1
 86 710 l 1,16,-1
 86 835 l 1,17,-1
 208 835 l 1,18,-1
 208 902 l 2,19,20
 208 1051 208 1051 279.5 1136 c 128,-1,21
 351 1221 351 1221 488 1221 c 0,22,23
 546 1221 546 1221 639 1193 c 1,24,-1
 639 1062 l 1,25,26
 564 1087 564 1087 515 1087 c 0,27,28
 367 1087 367 1087 367 902 c 2,29,-1
 367 835 l 1,30,-1
 813 835 l 1,31,-1
 813 902 l 2,32,33
 813 1051 813 1051 884.5 1136 c 128,-1,34
 956 1221 956 1221 1093 1221 c 0,35,36
 1153 1221 1153 1221 1246 1193 c 1,37,-1
 1246 1062 l 1,0,1
EndSplineSet
Ligature2: "'liga' Standard Ligatures lookup 0 subtable" f f
Ligature2: "'liga' Standard Ligatures lookup 0 subtable" f f
EndChar

StartChar: uniFB01
Encoding: 64257 64257 422
Width: 1181
GlyphClass: 3
Flags: W
LayerCount: 2
Fore
SplineSet
204 0 m 1,0,-1
 204 710 l 1,1,-1
 86 710 l 1,2,-1
 86 835 l 1,3,-1
 201 835 l 1,4,-1
 201 902 l 2,5,6
 201 1051 201 1051 278 1136 c 128,-1,7
 355 1221 355 1221 502 1221 c 0,8,9
 575 1221 575 1221 679 1193 c 1,10,-1
 679 1062 l 1,11,12
 572 1087 572 1087 529 1087 c 0,13,14
 361 1087 361 1087 361 902 c 2,15,-1
 361 835 l 1,16,-1
 1005 835 l 1,17,-1
 1005 0 l 1,18,-1
 847 0 l 1,19,-1
 847 710 l 1,20,-1
 363 710 l 1,21,-1
 363 0 l 1,22,-1
 204 0 l 1,0,-1
1003 1047 m 128,-1,24
 975 1016 975 1016 926.5 1016 c 128,-1,25
 878 1016 878 1016 849.5 1047 c 128,-1,26
 821 1078 821 1078 821 1119.5 c 128,-1,27
 821 1161 821 1161 849.5 1192.5 c 128,-1,28
 878 1224 878 1224 926 1224 c 128,-1,29
 974 1224 974 1224 1002.5 1192.5 c 128,-1,30
 1031 1161 1031 1161 1031 1119.5 c 128,-1,23
 1031 1078 1031 1078 1003 1047 c 128,-1,24
EndSplineSet
Ligature2: "'liga' Standard Ligatures lookup 0 subtable" f i
EndChar

StartChar: uniFB02
Encoding: 64258 64258 423
Width: 1245
GlyphClass: 3
Flags: W
LayerCount: 2
Fore
SplineSet
1188 15 m 1,0,1
 1104 -18 1104 -18 1008 -18 c 128,-1,2
 912 -18 912 -18 846.5 45.5 c 128,-1,3
 781 109 781 109 781 229 c 2,4,-1
 781 1074 l 1,5,6
 616 1087 616 1087 549 1087 c 0,7,8
 361 1087 361 1087 361 902 c 2,9,-1
 361 835 l 1,10,-1
 541 835 l 1,11,-1
 541 710 l 1,12,-1
 363 710 l 1,13,-1
 363 0 l 1,14,-1
 204 0 l 1,15,-1
 204 710 l 1,16,-1
 86 710 l 1,17,-1
 86 835 l 1,18,-1
 201 835 l 1,19,-1
 201 902 l 2,20,21
 201 1051 201 1051 283 1136 c 128,-1,22
 365 1221 365 1221 522 1221 c 0,23,24
 643 1221 643 1221 777.5 1202.5 c 128,-1,25
 912 1184 912 1184 939 1181 c 1,26,-1
 939 257 l 2,27,28
 939 175 939 175 964 141.5 c 128,-1,29
 989 108 989 108 1052.5 108 c 128,-1,30
 1116 108 1116 108 1188 134 c 1,31,-1
 1188 15 l 1,0,1
EndSplineSet
Ligature2: "'liga' Standard Ligatures lookup 0 subtable" f l
EndChar

StartChar: uniFB03
Encoding: 64259 64259 424
Width: 1714
GlyphClass: 3
Flags: W
LayerCount: 2
Fore
SplineSet
1533.5 1075.5 m 128,-1,1
 1505 1045 1505 1045 1456.5 1045 c 128,-1,2
 1408 1045 1408 1045 1379.5 1075.5 c 128,-1,3
 1351 1106 1351 1106 1351 1147.5 c 128,-1,4
 1351 1189 1351 1189 1379.5 1220.5 c 128,-1,5
 1408 1252 1408 1252 1456.5 1252 c 128,-1,6
 1505 1252 1505 1252 1533.5 1220.5 c 128,-1,7
 1562 1189 1562 1189 1562 1147.5 c 128,-1,0
 1562 1106 1562 1106 1533.5 1075.5 c 128,-1,1
1233 1062 m 1,8,9
 1158 1087 1158 1087 1107 1087 c 0,10,11
 959 1087 959 1087 959 902 c 2,12,-1
 959 835 l 1,13,-1
 1537 835 l 1,14,-1
 1537 0 l 1,15,-1
 1380 0 l 1,16,-1
 1380 710 l 1,17,-1
 962 710 l 1,18,-1
 962 0 l 1,19,-1
 803 0 l 1,20,-1
 803 710 l 1,21,-1
 370 710 l 1,22,-1
 370 0 l 1,23,-1
 211 0 l 1,24,-1
 211 710 l 1,25,-1
 86 710 l 1,26,-1
 86 835 l 1,27,-1
 208 835 l 1,28,-1
 208 902 l 2,29,30
 208 1051 208 1051 279.5 1136 c 128,-1,31
 351 1221 351 1221 488 1221 c 0,32,33
 546 1221 546 1221 639 1193 c 1,34,-1
 639 1062 l 1,35,36
 564 1087 564 1087 515 1087 c 0,37,38
 367 1087 367 1087 367 902 c 2,39,-1
 367 835 l 1,40,-1
 800 835 l 1,41,-1
 800 902 l 2,42,43
 800 1051 800 1051 871.5 1136 c 128,-1,44
 943 1221 943 1221 1080 1221 c 0,45,46
 1140 1221 1140 1221 1233 1193 c 1,47,-1
 1233 1062 l 1,8,9
EndSplineSet
Ligature2: "'liga' Standard Ligatures lookup 0 subtable" f f i
Ligature2: "'liga' Standard Ligatures lookup 0 subtable" f f i
EndChar

StartChar: uniFB04
Encoding: 64260 64260 425
Width: 1830
GlyphClass: 3
Flags: W
LayerCount: 2
Fore
SplineSet
1773 15 m 1,0,1
 1689 -18 1689 -18 1593 -18 c 128,-1,2
 1497 -18 1497 -18 1431.5 45.5 c 128,-1,3
 1366 109 1366 109 1366 229 c 2,4,-1
 1366 1074 l 1,5,6
 1201 1087 1201 1087 1134 1087 c 0,7,8
 946 1087 946 1087 946 902 c 2,9,-1
 946 835 l 1,10,-1
 1126 835 l 1,11,-1
 1126 710 l 1,12,-1
 948 710 l 1,13,-1
 948 0 l 1,14,-1
 789 0 l 1,15,-1
 789 710 l 1,16,-1
 363 710 l 1,17,-1
 363 0 l 1,18,-1
 204 0 l 1,19,-1
 204 710 l 1,20,-1
 86 710 l 1,21,-1
 86 835 l 1,22,-1
 201 835 l 1,23,-1
 201 902 l 2,24,25
 201 1051 201 1051 278 1136 c 128,-1,26
 355 1221 355 1221 502 1221 c 0,27,28
 575 1221 575 1221 679 1193 c 1,29,-1
 679 1062 l 1,30,31
 572 1087 572 1087 529 1087 c 0,32,33
 361 1087 361 1087 361 902 c 2,34,-1
 361 835 l 1,35,-1
 786 835 l 1,36,-1
 786 902 l 2,37,38
 786 1051 786 1051 868 1136 c 128,-1,39
 950 1221 950 1221 1107 1221 c 0,40,41
 1228 1221 1228 1221 1362.5 1202.5 c 128,-1,42
 1497 1184 1497 1184 1524 1181 c 1,43,-1
 1524 257 l 2,44,45
 1524 175 1524 175 1549 141.5 c 128,-1,46
 1574 108 1574 108 1637.5 108 c 128,-1,47
 1701 108 1701 108 1773 134 c 1,48,-1
 1773 15 l 1,0,1
EndSplineSet
Ligature2: "'liga' Standard Ligatures lookup 0 subtable" f f l
Ligature2: "'liga' Standard Ligatures lookup 0 subtable" f f l
EndChar

StartChar: fraction
Encoding: 8260 8260 426
Width: 1130
GlyphClass: 2
Flags: W
LayerCount: 2
Fore
SplineSet
60 0 m 1,0,-1
 946 1241 l 1,1,-1
 1065 1241 l 1,2,-1
 178 0 l 1,3,-1
 60 0 l 1,0,-1
EndSplineSet
EndChar

StartChar: uni2074
Encoding: 8308 8308 427
Width: 910
GlyphClass: 2
Flags: W
LayerCount: 2
Fore
SplineSet
533 408 m 1,0,-1
 533 580 l 1,1,-1
 127 580 l 1,2,-1
 645 1274 l 1,3,-1
 645 667 l 1,4,-1
 774 667 l 1,5,-1
 774 580 l 1,6,-1
 645 580 l 1,7,-1
 645 408 l 1,8,-1
 533 408 l 1,0,-1
301 667 m 1,9,-1
 533 667 l 1,10,-1
 533 995 l 1,11,-1
 301 667 l 1,9,-1
EndSplineSet
EndChar

